<svg xmlns="http://www.w3.org/2000/svg" viewBox="0 0 771 804">
<g fill="#ef9a78">
<path d="M 657.50,514.00 L 658.00,513.50 L 659.00,513.50 L 660.00,513.50 L 661.00,513.50 L 662.00,513.50 L 663.00,513.50 L 663.50,513.00 L 664.00,512.50 L 665.00,512.50 L 666.00,512.50 L 666.50,512.00 L 667.00,511.50 L 668.00,511.50 L 669.00,511.50 L 669.50,511.00 L 670.00,510.50 L 671.00,510.50 L 671.50,510.00 L 672.00,509.50 L 672.50,509.00 L 673.00,508.50 L 673.50,508.00 L 674.00,507.50 L 674.50,507.00 L 675.00,506.50 L 675.50,506.00 L 676.00,505.50 L 676.50,505.00 L 676.50,504.00 L 677.00,503.50 L 677.50,503.00 L 677.50,502.00 L 678.00,501.50 L 678.50,501.00 L 679.00,500.50 L 679.50,500.00 L 679.50,499.00 L 679.50,498.00 L 680.00,497.50 L 680.50,497.00 L 680.50,496.00 L 681.00,495.50 L 681.50,495.00 L 681.50,494.00 L 681.50,493.00 L 681.50,492.00 L 681.50,491.00 L 682.00,490.50 L 682.50,490.00 L 682.50,489.00 L 682.50,488.00 L 682.50,487.00 L 682.50,486.00 L 682.00,485.50 L 681.50,485.00 L 681.50,484.00 L 681.50,483.00 L 681.50,482.00 L 681.50,481.00 L 681.00,480.50 L 680.50,480.00 L 680.50,479.00 L 680.50,478.00 L 680.50,477.00 L 680.00,476.50 L 679.50,476.00 L 679.50,475.00 L 679.50,474.00 L 679.00,473.50 L 678.50,473.00 L 678.50,472.00 L 678.50,471.00 L 678.00,470.50 L 677.50,470.00 L 677.50,469.00 L 677.00,468.50 L 676.50,468.00 L 676.50,467.00 L 676.50,466.00 L 676.00,465.50 L 675.50,465.00 L 675.50,464.00 L 675.00,463.50 L 674.50,463.00 L 674.50,462.00 L 674.00,461.50 L 673.50,461.00 L 673.50,460.00 L 673.50,459.00 L 673.00,458.50 L 672.50,458.00 L 672.50,457.00 L 672.00,456.50 L 671.50,456.00 L 671.50,455.00 L 671.50,454.00 L 671.00,453.50 L 670.50,453.00 L 670.50,452.00 L 670.00,451.50 L 669.50,451.00 L 669.50,450.00 L 669.00,449.50 L 668.50,449.00 L 668.50,448.00 L 668.50,447.00 L 668.00,446.50 L 667.50,446.00 L 667.50,445.00 L 667.00,444.50 L 666.50,444.00 L 666.50,443.00 L 666.00,442.50 L 665.50,442.00 L 665.50,441.00 L 665.00,440.50 L 664.50,440.00 L 664.50,439.00 L 664.00,438.50 L 663.50,438.00 L 663.50,437.00 L 663.00,436.50 L 662.50,436.00 L 662.50,435.00 L 662.50,434.00 L 662.00,433.50 L 661.50,433.00 L 661.50,432.00 L 661.00,431.50 L 660.50,431.00 L 660.50,430.00 L 660.00,429.50 L 659.50,429.00 L 659.50,428.00 L 659.50,427.00 L 659.00,426.50 L 658.50,426.00 L 658.50,425.00 L 658.00,424.50 L 657.50,424.00 L 657.50,423.00 L 657.50,422.00 L 657.00,421.50 L 656.50,421.00 L 656.50,420.00 L 656.00,419.50 L 655.50,419.00 L 655.50,418.00 L 655.00,417.50 L 654.50,417.00 L 654.50,416.00 L 654.00,415.50 L 653.50,415.00 L 653.50,414.00 L 653.00,413.50 L 652.50,413.00 L 652.50,412.00 L 652.50,411.00 L 652.00,410.50 L 651.50,410.00 L 651.50,409.00 L 651.00,408.50 L 650.50,408.00 L 650.50,407.00 L 650.00,406.50 L 649.50,406.00 L 649.50,405.00 L 649.50,404.00 L 649.00,403.50 L 648.50,403.00 L 648.50,402.00 L 648.00,401.50 L 647.50,401.00 L 647.50,400.00 L 647.50,399.00 L 647.00,398.50 L 646.50,398.00 L 646.50,397.00 L 646.00,396.50 L 645.50,396.00 L 645.50,395.00 L 645.00,394.50 L 644.50,394.00 L 644.50,393.00 L 644.50,392.00 L 644.00,391.50 L 643.50,391.00 L 643.50,390.00 L 643.00,389.50 L 642.50,389.00 L 642.50,388.00 L 642.00,387.50 L 641.50,387.00 L 641.50,386.00 L 641.50,385.00 L 641.00,384.50 L 640.50,384.00 L 640.50,383.00 L 640.00,382.50 L 639.50,382.00 L 639.50,381.00 L 639.50,380.00 L 639.00,379.50 L 638.50,379.00 L 638.50,378.00 L 638.00,377.50 L 637.50,377.00 L 637.50,376.00 L 637.50,375.00 L 637.00,374.50 L 636.50,374.00 L 636.50,373.00 L 636.00,372.50 L 635.50,372.00 L 635.50,371.00 L 635.50,370.00 L 635.00,369.50 L 634.50,369.00 L 634.50,368.00 L 634.00,367.50 L 633.50,367.00 L 633.50,366.00 L 633.00,365.50 L 632.50,365.00 L 632.50,364.00 L 632.50,363.00 L 632.00,362.50 L 631.50,362.00 L 631.50,361.00 L 631.00,360.50 L 630.50,360.00 L 630.50,359.00 L 630.00,358.50 L 629.50,358.00 L 629.50,357.00 L 629.50,356.00 L 629.00,355.50 L 628.50,355.00 L 628.50,354.00 L 628.00,353.50 L 627.50,353.00 L 627.50,352.00 L 627.50,351.00 L 627.00,350.50 L 626.50,350.00 L 626.50,349.00 L 626.00,348.50 L 625.50,348.00 L 625.50,347.00 L 625.00,346.50 L 624.50,346.00 L 624.50,345.00 L 624.00,344.50 L 623.50,344.00 L 623.50,343.00 L 623.00,342.50 L 622.50,342.00 L 622.50,341.00 L 622.50,340.00 L 622.00,339.50 L 621.50,339.00 L 621.50,338.00 L 621.00,337.50 L 620.50,337.00 L 620.50,336.00 L 620.50,335.00 L 620.00,334.50 L 619.50,334.00 L 619.50,333.00 L 619.50,332.00 L 619.00,331.50 L 618.50,331.00 L 618.50,330.00 L 618.00,329.50 L 617.50,329.00 L 617.50,328.00 L 617.00,327.50 L 616.50,327.00 L 616.50,326.00 L 616.50,325.00 L 616.00,324.50 L 615.50,324.00 L 615.50,323.00 L 615.00,322.50 L 614.50,322.00 L 614.50,321.00 L 614.50,320.00 L 614.00,319.50 L 613.50,319.00 L 613.00,318.50 L 612.50,318.00 L 612.50,317.00 L 612.50,316.00 L 612.00,315.50 L 611.50,315.00 L 611.50,314.00 L 611.00,313.50 L 610.50,313.00 L 610.50,312.00 L 610.50,311.00 L 610.00,310.50 L 609.50,310.00 L 609.50,309.00 L 609.00,308.50 L 608.50,308.00 L 608.50,307.00 L 608.50,306.00 L 608.00,305.50 L 607.50,305.00 L 607.50,304.00 L 607.00,303.50 L 606.50,303.00 L 606.50,302.00 L 606.00,301.50 L 605.50,301.00 L 605.50,300.00 L 605.00,299.50 L 604.50,299.00 L 604.50,298.00 L 604.50,297.00 L 604.00,296.50 L 603.50,296.00 L 603.50,295.00 L 603.00,294.50 L 602.50,294.00 L 602.50,293.00 L 602.00,292.50 L 601.50,292.00 L 601.50,291.00 L 601.00,290.50 L 600.50,290.00 L 600.50,289.00 L 600.00,288.50 L 599.50,288.00 L 599.50,287.00 L 599.50,286.00 L 599.00,285.50 L 598.50,285.00 L 598.50,284.00 L 598.00,283.50 L 597.50,283.00 L 597.50,282.00 L 597.50,281.00 L 597.00,280.50 L 596.50,280.00 L 596.50,279.00 L 596.00,278.50 L 595.50,278.00 L 595.50,277.00 L 595.50,276.00 L 595.00,275.50 L 594.50,275.00 L 594.50,274.00 L 594.00,273.50 L 593.50,273.00 L 593.50,272.00 L 593.00,271.50 L 592.50,271.00 L 592.50,270.00 L 592.50,269.00 L 592.00,268.50 L 591.50,268.00 L 591.50,267.00 L 591.00,266.50 L 590.50,266.00 L 590.50,265.00 L 590.00,264.50 L 589.50,264.00 L 589.50,263.00 L 589.50,262.00 L 589.00,261.50 L 588.50,261.00 L 588.50,260.00 L 588.00,259.50 L 587.50,259.00 L 587.50,258.00 L 587.50,257.00 L 587.00,256.50 L 586.50,256.00 L 586.50,255.00 L 586.50,254.00 L 586.00,253.50 L 585.50,253.00 L 585.50,252.00 L 585.00,251.50 L 584.50,251.00 L 584.50,250.00 L 584.00,249.50 L 583.50,249.00 L 583.50,248.00 L 583.50,247.00 L 583.00,246.50 L 582.50,246.00 L 582.50,245.00 L 582.00,244.50 L 581.50,244.00 L 581.50,243.00 L 581.50,242.00 L 581.00,241.50 L 580.50,241.00 L 580.50,240.00 L 580.00,239.50 L 579.50,239.00 L 579.50,238.00 L 579.00,237.50 L 578.50,237.00 L 578.50,236.00 L 578.00,235.50 L 577.50,235.00 L 577.50,234.00 L 577.50,233.00 L 577.00,232.50 L 576.50,232.00 L 576.50,231.00 L 576.00,230.50 L 575.50,230.00 L 575.50,229.00 L 575.00,228.50 L 574.50,228.00 L 574.50,227.00 L 574.50,226.00 L 574.00,225.50 L 573.50,225.00 L 573.50,224.00 L 573.50,223.00 L 573.00,222.50 L 572.50,222.00 L 572.50,221.00 L 572.00,220.50 L 571.50,220.00 L 571.50,219.00 L 571.00,218.50 L 570.50,218.00 L 570.50,217.00 L 570.00,216.50 L 569.50,216.00 L 569.50,215.00 L 569.50,214.00 L 569.00,213.50 L 568.50,213.00 L 568.50,212.00 L 568.00,211.50 L 567.50,211.00 L 567.50,210.00 L 567.00,209.50 L 566.50,209.00 L 566.50,208.00 L 566.50,207.00 L 566.00,206.50 L 565.50,206.00 L 565.50,205.00 L 565.00,204.50 L 564.50,204.00 L 564.50,203.00 L 564.50,202.00 L 564.00,201.50 L 563.50,201.00 L 563.50,200.00 L 563.00,199.50 L 562.50,199.00 L 562.50,198.00 L 562.00,197.50 L 561.50,197.00 L 561.50,196.00 L 561.50,195.00 L 561.00,194.50 L 560.50,194.00 L 560.50,193.00 L 560.50,192.00 L 560.00,191.50 L 559.50,191.00 L 559.50,190.00 L 559.00,189.50 L 558.50,189.00 L 558.50,188.00 L 558.00,187.50 L 557.50,187.00 L 557.50,186.00 L 557.50,185.00 L 557.00,184.50 L 556.50,184.00 L 556.50,183.00 L 556.00,182.50 L 555.50,182.00 L 555.50,181.00 L 555.00,180.50 L 554.50,180.00 L 554.50,179.00 L 554.50,178.00 L 554.00,177.50 L 553.50,177.00 L 553.50,176.00 L 553.00,175.50 L 552.50,175.00 L 552.50,174.00 L 552.50,173.00 L 552.00,172.50 L 551.50,172.00 L 551.50,171.00 L 551.00,170.50 L 550.50,170.00 L 550.50,169.00 L 550.00,168.50 L 549.50,168.00 L 549.50,167.00 L 549.00,166.50 L 548.50,166.00 L 548.50,165.00 L 548.50,164.00 L 548.00,163.50 L 547.50,163.00 L 547.50,162.00 L 547.50,161.00 L 547.00,160.50 L 546.50,160.00 L 546.50,159.00 L 546.00,158.50 L 545.50,158.00 L 545.50,157.00 L 545.00,156.50 L 544.50,156.00 L 544.50,155.00 L 544.50,154.00 L 544.00,153.50 L 543.50,153.00 L 543.50,152.00 L 543.00,151.50 L 542.50,151.00 L 542.50,150.00 L 542.00,149.50 L 541.50,149.00 L 541.50,148.00 L 541.00,147.50 L 540.50,147.00 L 540.50,146.00 L 540.50,145.00 L 540.00,144.50 L 539.50,144.00 L 539.50,143.00 L 539.00,142.50 L 538.50,142.00 L 538.50,141.00 L 538.00,140.50 L 537.50,140.00 L 537.50,139.00 L 537.00,138.50 L 536.50,138.00 L 536.50,137.00 L 536.50,136.00 L 536.00,135.50 L 535.50,135.00 L 535.50,134.00 L 535.00,133.50 L 534.50,133.00 L 534.50,132.00 L 534.50,131.00 L 534.00,130.50 L 533.50,130.00 L 533.50,129.00 L 533.00,128.50 L 532.50,128.00 L 532.50,127.00 L 532.50,126.00 L 532.00,125.50 L 531.50,125.00 L 531.50,124.00 L 531.00,123.50 L 530.50,123.00 L 530.50,122.00 L 530.00,121.50 L 529.50,121.00 L 529.50,120.00 L 529.50,119.00 L 529.00,118.50 L 528.50,118.00 L 528.50,117.00 L 528.00,116.50 L 527.50,116.00 L 527.50,115.00 L 527.00,114.50 L 526.50,114.00 L 526.50,113.00 L 526.00,112.50 L 525.50,112.00 L 525.50,111.00 L 525.00,110.50 L 524.50,110.00 L 524.50,109.00 L 524.50,108.00 L 524.00,107.50 L 523.50,107.00 L 523.50,106.00 L 523.00,105.50 L 522.50,105.00 L 522.50,104.00 L 522.00,103.50 L 521.50,103.00 L 521.50,102.00 L 521.00,101.50 L 520.50,101.00 L 520.50,100.00 L 520.50,99.00 L 520.00,98.50 L 519.50,98.00 L 519.50,97.00 L 519.00,96.50 L 518.50,96.00 L 518.50,95.00 L 518.00,94.50 L 517.50,94.00 L 517.00,93.50 L 516.50,93.00 L 516.50,92.00 L 516.00,91.50 L 515.50,91.00 L 515.50,90.00 L 515.00,89.50 L 514.50,89.00 L 514.50,88.00 L 514.00,87.50 L 513.50,87.00 L 513.50,86.00 L 513.00,85.50 L 512.50,85.00 L 512.00,84.50 L 511.50,84.00 L 511.50,83.00 L 511.00,82.50 L 510.50,82.00 L 510.50,81.00 L 510.00,80.50 L 509.50,80.00 L 509.00,79.50 L 508.50,79.00 L 508.50,78.00 L 508.00,77.50 L 507.50,77.00 L 507.00,76.50 L 506.50,76.00 L 506.00,75.50 L 505.50,75.00 L 505.50,74.00 L 505.00,73.50 L 504.50,73.00 L 504.00,72.50 L 503.50,72.00 L 503.00,71.50 L 502.50,71.00 L 502.50,70.00 L 502.00,69.50 L 501.50,69.00 L 501.00,68.50 L 500.50,68.00 L 500.00,67.50 L 499.50,67.00 L 499.00,66.50 L 498.50,66.00 L 498.00,65.50 L 497.50,65.00 L 497.00,64.50 L 496.50,64.00 L 496.00,63.50 L 495.50,63.00 L 495.50,62.00 L 495.00,61.50 L 494.50,61.00 L 494.00,60.50 L 493.50,60.00 L 493.00,59.50 L 492.50,59.00 L 492.00,58.50 L 491.00,58.50 L 490.50,58.00 L 490.00,57.50 L 489.50,57.00 L 489.00,56.50 L 488.50,56.00 L 488.00,55.50 L 487.50,55.00 L 487.00,54.50 L 486.50,54.00 L 486.00,53.50 L 485.00,53.50 L 484.50,53.00 L 484.00,52.50 L 483.50,52.00 L 483.00,51.50 L 482.50,51.00 L 482.00,50.50 L 481.00,50.50 L 480.50,50.00 L 480.00,49.50 L 479.50,49.00 L 479.00,48.50 L 478.50,48.00 L 478.00,47.50 L 477.00,47.50 L 476.50,47.00 L 476.00,46.50 L 475.50,46.00 L 475.00,45.50 L 474.00,45.50 L 473.50,45.00 L 473.00,44.50 L 472.00,44.50 L 471.50,44.00 L 471.00,43.50 L 470.50,43.00 L 470.00,42.50 L 469.00,42.50 L 468.50,42.00 L 468.00,41.50 L 467.00,41.50 L 466.50,41.00 L 466.00,40.50 L 465.00,40.50 L 464.50,40.00 L 464.00,39.50 L 463.00,39.50 L 462.50,39.00 L 462.00,38.50 L 461.00,38.50 L 460.50,38.00 L 460.00,37.50 L 459.00,37.50 L 458.50,37.00 L 458.00,36.50 L 457.00,36.50 L 456.50,36.00 L 456.00,35.50 L 455.00,35.50 L 454.50,35.00 L 454.00,34.50 L 453.00,34.50 L 452.00,34.50 L 451.50,34.00 L 451.00,33.50 L 450.00,33.50 L 449.50,33.00 L 449.00,32.50 L 448.00,32.50 L 447.00,32.50 L 446.50,32.00 L 446.00,31.50 L 445.00,31.50 L 444.00,31.50 L 443.50,31.00 L 443.00,30.50 L 442.00,30.50 L 441.00,30.50 L 440.00,30.50 L 439.50,30.00 L 439.00,29.50 L 438.00,29.50 L 437.00,29.50 L 436.50,29.00 L 436.00,28.50 L 435.00,28.50 L 434.00,28.50 L 433.00,28.50 L 432.50,28.00 L 432.00,27.50 L 431.00,27.50 L 430.00,27.50 L 429.00,27.50 L 428.00,27.50 L 427.50,27.00 L 427.00,26.50 L 426.00,26.50 L 425.00,26.50 L 424.00,26.50 L 423.00,26.50 L 422.00,26.50 L 421.00,26.50 L 420.50,26.00 L 420.00,25.50 L 419.00,25.50 L 418.00,25.50 L 417.00,25.50 L 416.00,25.50 L 415.00,25.50 L 414.00,25.50 L 413.00,25.50 L 412.00,25.50 L 411.50,25.00 L 411.00,24.50 L 410.00,24.50 L 409.00,24.50 L 408.00,24.50 L 407.00,24.50 L 406.00,24.50 L 405.00,24.50 L 404.00,24.50 L 403.00,24.50 L 402.00,24.50 L 401.00,24.50 L 400.00,24.50 L 399.00,24.50 L 398.00,24.50 L 397.00,24.50 L 396.00,24.50 L 395.00,24.50 L 394.00,24.50 L 393.00,24.50 L 392.00,24.50 L 391.00,24.50 L 390.00,24.50 L 389.00,24.50 L 388.00,24.50 L 387.00,24.50 L 386.00,24.50 L 385.00,24.50 L 384.50,25.00 L 384.00,25.50 L 383.00,25.50 L 382.00,25.50 L 381.00,25.50 L 380.00,25.50 L 379.00,25.50 L 378.50,26.00 L 378.00,26.50 L 377.00,26.50 L 376.00,26.50 L 375.00,26.50 L 374.00,26.50 L 373.00,26.50 L 372.50,27.00 L 372.00,27.50 L 371.00,27.50 L 370.00,27.50 L 369.00,27.50 L 368.00,27.50 L 367.50,28.00 L 367.00,28.50 L 366.00,28.50 L 365.00,28.50 L 364.00,28.50 L 363.50,29.00 L 363.00,29.50 L 362.00,29.50 L 361.00,29.50 L 360.50,30.00 L 360.00,30.50 L 359.00,30.50 L 358.00,30.50 L 357.00,30.50 L 356.50,31.00 L 356.00,31.50 L 355.00,31.50 L 354.50,32.00 L 354.00,32.50 L 353.00,32.50 L 352.00,32.50 L 351.50,33.00 L 351.00,33.50 L 350.00,33.50 L 349.00,33.50 L 348.50,34.00 L 348.00,34.50 L 347.00,34.50 L 346.00,34.50 L 345.50,35.00 L 345.00,35.50 L 344.00,35.50 L 343.50,36.00 L 343.00,36.50 L 342.00,36.50 L 341.50,37.00 L 341.00,37.50 L 340.00,37.50 L 339.50,38.00 L 339.00,38.50 L 338.00,38.50 L 337.50,39.00 L 337.00,39.50 L 336.00,39.50 L 335.50,40.00 L 335.00,40.50 L 334.00,40.50 L 333.50,41.00 L 333.00,41.50 L 332.00,41.50 L 331.50,42.00 L 331.00,42.50 L 330.00,42.50 L 329.50,43.00 L 329.00,43.50 L 328.50,44.00 L 328.00,44.50 L 327.00,44.50 L 326.50,45.00 L 326.00,45.50 L 325.50,46.00 L 325.00,46.50 L 324.00,46.50 L 323.50,47.00 L 323.00,47.50 L 322.50,48.00 L 322.00,48.50 L 321.00,48.50 L 320.50,49.00 L 320.00,49.50 L 319.50,50.00 L 319.00,50.50 L 318.00,50.50 L 317.50,51.00 L 317.00,51.50 L 316.50,52.00 L 316.00,52.50 L 315.50,53.00 L 315.00,53.50 L 314.50,54.00 L 314.00,54.50 L 313.50,55.00 L 313.00,55.50 L 312.50,56.00 L 312.00,56.50 L 311.50,57.00 L 311.00,57.50 L 310.50,58.00 L 310.00,58.50 L 309.00,58.50 L 308.50,59.00 L 308.00,59.50 L 307.50,60.00 L 307.00,60.50 L 306.50,61.00 L 306.00,61.50 L 305.50,62.00 L 305.00,62.50 L 304.50,63.00 L 304.00,63.50 L 303.50,64.00 L 303.00,64.50 L 302.50,65.00 L 302.50,66.00 L 302.00,66.50 L 301.50,67.00 L 301.00,67.50 L 300.50,68.00 L 300.00,68.50 L 299.50,69.00 L 299.00,69.50 L 298.50,70.00 L 298.00,70.50 L 297.50,71.00 L 297.00,71.50 L 296.50,72.00 L 296.00,72.50 L 295.50,73.00 L 295.50,74.00 L 295.00,74.50 L 294.50,75.00 L 294.00,75.50 L 293.50,76.00 L 293.00,76.50 L 292.50,77.00 L 292.50,78.00 L 292.00,78.50 L 291.50,79.00 L 291.00,79.50 L 290.50,80.00 L 290.50,81.00 L 290.00,81.50 L 289.50,82.00 L 289.00,82.50 L 288.50,83.00 L 288.50,84.00 L 288.00,84.50 L 287.50,85.00 L 287.00,85.50 L 286.50,86.00 L 286.50,87.00 L 286.00,87.50 L 285.50,88.00 L 285.50,89.00 L 285.00,89.50 L 284.50,90.00 L 284.00,90.50 L 283.50,91.00 L 283.50,92.00 L 283.00,92.50 L 282.50,93.00 L 282.50,94.00 L 282.50,95.00 L 282.00,95.50 L 281.50,96.00 L 281.50,97.00 L 281.00,97.50 L 280.50,98.00 L 280.50,99.00 L 280.00,99.50 L 279.50,100.00 L 279.50,101.00 L 279.00,101.50 L 278.50,102.00 L 278.50,103.00 L 278.50,104.00 L 278.00,104.50 L 277.50,105.00 L 277.50,106.00 L 277.00,106.50 L 276.50,107.00 L 276.50,108.00 L 276.50,109.00 L 276.50,110.00 L 276.00,110.50 L 275.50,111.00 L 275.50,112.00 L 275.50,113.00 L 275.00,113.50 L 274.50,114.00 L 274.50,115.00 L 274.50,116.00 L 274.50,117.00 L 274.00,117.50 L 273.50,118.00 L 273.50,119.00 L 273.50,120.00 L 273.50,121.00 L 273.50,122.00 L 273.00,122.50 L 272.50,123.00 L 272.50,124.00 L 272.50,125.00 L 272.50,126.00 L 272.50,127.00 L 272.50,128.00 L 272.50,129.00 L 272.50,130.00 L 272.50,131.00 L 272.50,132.00 L 272.50,133.00 L 272.50,134.00 L 272.50,135.00 L 272.50,136.00 L 272.50,137.00 L 272.50,138.00 L 272.50,139.00 L 272.50,140.00 L 272.50,141.00 L 272.50,142.00 L 272.50,143.00 L 272.50,144.00 L 272.50,145.00 L 272.50,146.00 L 272.50,147.00 L 272.50,148.00 L 272.50,149.00 L 272.50,150.00 L 273.00,150.50 L 273.50,151.00 L 273.50,152.00 L 273.50,153.00 L 273.50,154.00 L 273.50,155.00 L 274.00,155.50 L 274.50,156.00 L 274.50,157.00 L 274.50,158.00 L 274.50,159.00 L 275.00,159.50 L 275.50,160.00 L 275.50,161.00 L 275.50,162.00 L 275.50,163.00 L 276.00,163.50 L 276.50,164.00 L 276.50,165.00 L 276.50,166.00 L 277.00,166.50 L 277.50,167.00 L 277.50,168.00 L 277.50,169.00 L 278.00,169.50 L 278.50,170.00 L 278.50,171.00 L 279.00,171.50 L 279.50,172.00 L 279.50,173.00 L 280.00,173.50 L 280.50,174.00 L 280.50,175.00 L 281.00,175.50 L 281.50,176.00 L 281.50,177.00 L 281.50,178.00 L 282.00,178.50 L 282.50,179.00 L 283.00,179.50 L 283.50,180.00 L 283.50,181.00 L 284.00,181.50 L 284.50,182.00 L 285.00,182.50 L 285.50,183.00 L 285.50,184.00 L 286.00,184.50 L 286.50,185.00 L 287.00,185.50 L 287.50,186.00 L 287.50,187.00 L 288.00,187.50 L 288.50,188.00 L 289.00,188.50 L 289.50,189.00 L 290.00,189.50 L 290.50,190.00 L 290.50,191.00 L 291.00,191.50 L 291.50,192.00 L 292.00,192.50 L 292.50,193.00 L 293.00,193.50 L 293.50,194.00 L 293.50,195.00 L 294.00,195.50 L 294.50,196.00 L 295.00,196.50 L 295.50,197.00 L 295.50,198.00 L 296.00,198.50 L 296.50,199.00 L 297.00,199.50 L 297.50,200.00 L 297.50,201.00 L 298.00,201.50 L 298.50,202.00 L 299.00,202.50 L 299.50,203.00 L 300.00,203.50 L 300.50,204.00 L 300.50,205.00 L 301.00,205.50 L 302.00,205.50 L 302.50,206.00 L 303.00,206.50 L 303.50,207.00 L 304.00,207.50 L 304.50,208.00 L 305.00,208.50 L 305.50,209.00 L 306.00,209.50 L 306.50,210.00 L 307.00,210.50 L 307.50,211.00 L 308.00,211.50 L 308.50,212.00 L 308.50,213.00 L 309.00,213.50 L 309.50,214.00 L 310.00,214.50 L 310.50,215.00 L 311.00,215.50 L 311.50,216.00 L 312.00,216.50 L 312.50,217.00 L 313.00,217.50 L 313.50,218.00 L 314.00,218.50 L 315.00,218.50 L 315.50,219.00 L 316.00,219.50 L 316.50,220.00 L 317.00,220.50 L 317.50,221.00 L 318.00,221.50 L 318.50,222.00 L 319.00,222.50 L 320.00,222.50 L 320.50,223.00 L 321.00,223.50 L 321.50,224.00 L 322.00,224.50 L 322.50,225.00 L 323.00,225.50 L 323.50,226.00 L 324.00,226.50 L 324.50,227.00 L 325.00,227.50 L 325.50,228.00 L 326.00,228.50 L 326.50,229.00 L 327.00,229.50 L 327.50,230.00 L 328.00,230.50 L 328.50,231.00 L 329.00,231.50 L 329.50,232.00 L 330.00,232.50 L 330.50,233.00 L 331.00,233.50 L 332.00,233.50 L 332.50,234.00 L 333.00,234.50 L 333.50,235.00 L 334.00,235.50 L 334.50,236.00 L 335.00,236.50 L 335.50,237.00 L 336.00,237.50 L 336.50,238.00 L 337.00,238.50 L 337.50,239.00 L 338.00,239.50 L 338.50,240.00 L 339.00,240.50 L 339.50,241.00 L 340.00,241.50 L 341.00,241.50 L 341.50,242.00 L 342.00,242.50 L 342.50,243.00 L 343.00,243.50 L 343.50,244.00 L 344.00,244.50 L 344.50,245.00 L 345.00,245.50 L 345.50,246.00 L 346.00,246.50 L 346.50,247.00 L 347.00,247.50 L 347.50,248.00 L 348.00,248.50 L 349.00,248.50 L 349.50,249.00 L 350.00,249.50 L 350.50,250.00 L 351.00,250.50 L 351.50,251.00 L 352.00,251.50 L 352.50,252.00 L 353.00,252.50 L 353.50,253.00 L 354.00,253.50 L 354.50,254.00 L 355.00,254.50 L 356.00,254.50 L 356.50,255.00 L 357.00,255.50 L 357.50,256.00 L 358.00,256.50 L 358.50,257.00 L 359.00,257.50 L 359.50,258.00 L 360.00,258.50 L 360.50,259.00 L 361.00,259.50 L 361.50,260.00 L 362.00,260.50 L 362.50,261.00 L 363.00,261.50 L 363.50,262.00 L 364.00,262.50 L 364.50,263.00 L 365.00,263.50 L 366.00,263.50 L 366.50,264.00 L 367.00,264.50 L 367.50,265.00 L 368.00,265.50 L 368.50,266.00 L 369.00,266.50 L 369.50,267.00 L 370.00,267.50 L 370.50,268.00 L 371.00,268.50 L 371.50,269.00 L 372.00,269.50 L 372.50,270.00 L 373.00,270.50 L 373.50,271.00 L 374.00,271.50 L 374.50,272.00 L 375.00,272.50 L 375.50,273.00 L 376.00,273.50 L 376.50,274.00 L 377.00,274.50 L 377.50,275.00 L 378.00,275.50 L 379.00,275.50 L 379.50,276.00 L 380.00,276.50 L 380.50,277.00 L 381.00,277.50 L 381.50,278.00 L 382.00,278.50 L 382.50,279.00 L 383.00,279.50 L 383.50,280.00 L 384.00,280.50 L 384.50,281.00 L 385.00,281.50 L 385.50,282.00 L 386.00,282.50 L 386.50,283.00 L 387.00,283.50 L 387.50,284.00 L 388.00,284.50 L 388.50,285.00 L 389.00,285.50 L 389.50,286.00 L 390.00,286.50 L 390.50,287.00 L 391.00,287.50 L 392.00,287.50 L 392.50,288.00 L 393.00,288.50 L 393.50,289.00 L 394.00,289.50 L 394.50,290.00 L 395.00,290.50 L 395.50,291.00 L 396.00,291.50 L 397.00,291.50 L 397.50,292.00 L 398.00,292.50 L 398.50,293.00 L 399.00,293.50 L 399.50,294.00 L 400.00,294.50 L 400.50,295.00 L 401.00,295.50 L 401.50,296.00 L 402.00,296.50 L 402.50,297.00 L 403.00,297.50 L 403.50,298.00 L 404.00,298.50 L 404.50,299.00 L 405.00,299.50 L 405.50,300.00 L 406.00,300.50 L 406.50,301.00 L 407.00,301.50 L 407.50,302.00 L 408.00,302.50 L 408.50,303.00 L 409.00,303.50 L 409.50,304.00 L 410.00,304.50 L 410.50,305.00 L 411.00,305.50 L 411.50,306.00 L 412.00,306.50 L 412.50,307.00 L 413.00,307.50 L 414.00,307.50 L 414.50,308.00 L 414.50,309.00 L 415.00,309.50 L 416.00,309.50 L 416.50,310.00 L 417.00,310.50 L 417.50,311.00 L 418.00,311.50 L 418.50,312.00 L 419.00,312.50 L 419.50,313.00 L 420.00,313.50 L 420.50,314.00 L 421.00,314.50 L 421.50,315.00 L 422.00,315.50 L 422.50,316.00 L 423.00,316.50 L 423.50,317.00 L 424.00,317.50 L 424.50,318.00 L 425.00,318.50 L 425.50,319.00 L 426.00,319.50 L 426.50,320.00 L 427.00,320.50 L 428.00,320.50 L 428.50,321.00 L 429.00,321.50 L 429.50,322.00 L 430.00,322.50 L 430.50,323.00 L 431.00,323.50 L 431.50,324.00 L 432.00,324.50 L 432.50,325.00 L 433.00,325.50 L 433.50,326.00 L 434.00,326.50 L 434.50,327.00 L 435.00,327.50 L 435.50,328.00 L 436.00,328.50 L 436.50,329.00 L 437.00,329.50 L 438.00,329.50 L 438.50,330.00 L 439.00,330.50 L 439.50,331.00 L 440.00,331.50 L 440.50,332.00 L 441.00,332.50 L 441.50,333.00 L 442.00,333.50 L 442.50,334.00 L 443.00,334.50 L 443.50,335.00 L 444.00,335.50 L 445.00,335.50 L 445.50,336.00 L 446.00,336.50 L 446.50,337.00 L 447.00,337.50 L 447.50,338.00 L 448.00,338.50 L 448.50,339.00 L 449.00,339.50 L 449.50,340.00 L 450.00,340.50 L 450.50,341.00 L 451.00,341.50 L 451.50,342.00 L 452.00,342.50 L 453.00,342.50 L 453.50,343.00 L 454.00,343.50 L 454.50,344.00 L 455.00,344.50 L 455.50,345.00 L 456.00,345.50 L 456.50,346.00 L 457.00,346.50 L 457.50,347.00 L 458.00,347.50 L 458.50,348.00 L 459.00,348.50 L 459.50,349.00 L 460.00,349.50 L 460.50,350.00 L 461.00,350.50 L 461.50,351.00 L 462.00,351.50 L 462.50,352.00 L 463.00,352.50 L 463.50,353.00 L 464.00,353.50 L 465.00,353.50 L 465.50,354.00 L 466.00,354.50 L 466.50,355.00 L 467.00,355.50 L 467.50,356.00 L 468.00,356.50 L 468.50,357.00 L 469.00,357.50 L 469.50,358.00 L 470.00,358.50 L 470.50,359.00 L 471.00,359.50 L 471.50,360.00 L 472.00,360.50 L 473.00,360.50 L 473.50,361.00 L 474.00,361.50 L 474.50,362.00 L 475.00,362.50 L 475.50,363.00 L 476.00,363.50 L 476.50,364.00 L 477.00,364.50 L 477.50,365.00 L 478.00,365.50 L 478.50,366.00 L 479.00,366.50 L 480.00,366.50 L 480.50,367.00 L 481.00,367.50 L 481.50,368.00 L 482.00,368.50 L 482.50,369.00 L 483.00,369.50 L 483.50,370.00 L 484.00,370.50 L 484.50,371.00 L 485.00,371.50 L 485.50,372.00 L 486.00,372.50 L 486.50,373.00 L 487.00,373.50 L 487.50,374.00 L 488.00,374.50 L 488.50,375.00 L 489.00,375.50 L 489.50,376.00 L 490.00,376.50 L 491.00,376.50 L 491.50,377.00 L 492.00,377.50 L 492.50,378.00 L 493.00,378.50 L 493.50,379.00 L 494.00,379.50 L 494.50,380.00 L 495.00,380.50 L 495.50,381.00 L 496.00,381.50 L 496.50,382.00 L 497.00,382.50 L 497.50,383.00 L 498.00,383.50 L 498.50,384.00 L 499.00,384.50 L 499.50,385.00 L 500.00,385.50 L 501.00,385.50 L 501.50,386.00 L 502.00,386.50 L 502.50,387.00 L 503.00,387.50 L 503.50,388.00 L 504.00,388.50 L 504.50,389.00 L 505.00,389.50 L 505.50,390.00 L 506.00,390.50 L 506.50,391.00 L 507.00,391.50 L 507.50,392.00 L 508.00,392.50 L 508.50,393.00 L 509.00,393.50 L 510.00,393.50 L 510.50,394.00 L 511.00,394.50 L 511.50,395.00 L 512.00,395.50 L 512.50,396.00 L 513.00,396.50 L 513.50,397.00 L 514.00,397.50 L 514.50,398.00 L 515.00,398.50 L 515.50,399.00 L 516.00,399.50 L 516.50,400.00 L 517.00,400.50 L 518.00,400.50 L 518.50,401.00 L 519.00,401.50 L 519.50,402.00 L 520.00,402.50 L 520.50,403.00 L 521.00,403.50 L 521.50,404.00 L 522.00,404.50 L 522.50,405.00 L 523.00,405.50 L 523.50,406.00 L 524.00,406.50 L 524.50,407.00 L 525.00,407.50 L 525.50,408.00 L 526.00,408.50 L 526.50,409.00 L 527.00,409.50 L 528.00,409.50 L 528.50,410.00 L 529.00,410.50 L 529.50,411.00 L 530.00,411.50 L 530.50,412.00 L 531.00,412.50 L 531.50,413.00 L 532.00,413.50 L 532.50,414.00 L 533.00,414.50 L 534.00,414.50 L 534.50,415.00 L 535.00,415.50 L 535.50,416.00 L 536.00,416.50 L 536.50,417.00 L 537.00,417.50 L 537.50,418.00 L 538.00,418.50 L 538.50,419.00 L 539.00,419.50 L 539.50,420.00 L 540.00,420.50 L 540.50,421.00 L 541.00,421.50 L 541.50,422.00 L 542.00,422.50 L 543.00,422.50 L 543.50,423.00 L 544.00,423.50 L 544.50,424.00 L 545.00,424.50 L 545.50,425.00 L 546.00,425.50 L 546.50,426.00 L 547.00,426.50 L 547.50,427.00 L 548.00,427.50 L 548.50,428.00 L 549.00,428.50 L 549.50,429.00 L 550.00,429.50 L 550.50,430.00 L 551.00,430.50 L 551.50,431.00 L 552.00,431.50 L 552.50,432.00 L 553.00,432.50 L 554.00,432.50 L 554.50,433.00 L 555.00,433.50 L 555.50,434.00 L 556.00,434.50 L 556.50,435.00 L 557.00,435.50 L 557.50,436.00 L 558.00,436.50 L 558.50,437.00 L 559.00,437.50 L 559.50,438.00 L 560.00,438.50 L 560.50,439.00 L 561.00,439.50 L 561.50,440.00 L 562.00,440.50 L 562.50,441.00 L 563.00,441.50 L 564.00,441.50 L 564.50,442.00 L 565.00,442.50 L 565.50,443.00 L 566.00,443.50 L 566.50,444.00 L 567.00,444.50 L 567.50,445.00 L 568.00,445.50 L 568.50,446.00 L 569.00,446.50 L 569.50,447.00 L 570.00,447.50 L 570.50,448.00 L 571.00,448.50 L 571.50,449.00 L 572.00,449.50 L 573.00,449.50 L 573.50,450.00 L 574.00,450.50 L 574.50,451.00 L 575.00,451.50 L 575.50,452.00 L 576.00,452.50 L 576.50,453.00 L 577.00,453.50 L 577.50,454.00 L 578.00,454.50 L 578.50,455.00 L 579.00,455.50 L 580.00,455.50 L 580.50,456.00 L 581.00,456.50 L 581.50,457.00 L 582.00,457.50 L 582.50,458.00 L 583.00,458.50 L 583.50,459.00 L 584.00,459.50 L 584.50,460.00 L 585.00,460.50 L 585.50,461.00 L 586.00,461.50 L 586.50,462.00 L 587.00,462.50 L 587.50,463.00 L 588.00,463.50 L 588.50,464.00 L 589.00,464.50 L 589.50,465.00 L 590.00,465.50 L 590.50,466.00 L 591.00,466.50 L 592.00,466.50 L 592.50,467.00 L 593.00,467.50 L 593.50,468.00 L 594.00,468.50 L 594.50,469.00 L 595.00,469.50 L 595.50,470.00 L 596.00,470.50 L 596.50,471.00 L 597.00,471.50 L 597.50,472.00 L 598.00,472.50 L 598.50,473.00 L 599.00,473.50 L 599.50,474.00 L 600.00,474.50 L 600.50,475.00 L 601.00,475.50 L 601.50,476.00 L 602.00,476.50 L 602.50,477.00 L 603.00,477.50 L 603.50,478.00 L 604.00,478.50 L 604.50,479.00 L 605.00,479.50 L 606.00,479.50 L 606.50,480.00 L 606.50,481.00 L 607.00,481.50 L 607.50,482.00 L 608.00,482.50 L 608.50,483.00 L 609.00,483.50 L 609.50,484.00 L 610.00,484.50 L 611.00,484.50 L 611.50,485.00 L 612.00,485.50 L 612.50,486.00 L 613.00,486.50 L 613.50,487.00 L 614.00,487.50 L 614.50,488.00 L 615.00,488.50 L 615.50,489.00 L 616.00,489.50 L 616.50,490.00 L 617.00,490.50 L 618.00,490.50 L 618.50,491.00 L 619.00,491.50 L 619.50,492.00 L 620.00,492.50 L 620.50,493.00 L 621.00,493.50 L 621.50,494.00 L 622.00,494.50 L 622.50,495.00 L 623.00,495.50 L 623.50,496.00 L 624.00,496.50 L 624.50,497.00 L 625.00,497.50 L 625.50,498.00 L 626.00,498.50 L 626.50,499.00 L 627.00,499.50 L 627.50,500.00 L 628.00,500.50 L 628.50,501.00 L 629.00,501.50 L 629.50,502.00 L 630.00,502.50 L 631.00,502.50 L 631.50,503.00 L 632.00,503.50 L 632.50,504.00 L 633.00,504.50 L 633.50,505.00 L 634.00,505.50 L 634.50,506.00 L 635.00,506.50 L 635.50,507.00 L 636.00,507.50 L 636.50,508.00 L 637.00,508.50 L 638.00,508.50 L 638.50,509.00 L 639.00,509.50 L 639.50,510.00 L 640.00,510.50 L 641.00,510.50 L 641.50,511.00 L 642.00,511.50 L 643.00,511.50 L 644.00,511.50 L 644.50,512.00 L 645.00,512.50 L 646.00,512.50 L 646.50,513.00 L 647.00,513.50 L 648.00,513.50 L 649.00,513.50 L 650.00,513.50 L 650.50,514.00 L 651.00,514.50 L 652.00,514.50 L 653.00,514.50 L 654.00,514.50 L 655.00,514.50 L 656.00,514.50 L 657.00,514.50 L 657.50,514.00 Z"/><path d="M 150.50,513.00 L 151.00,512.50 L 152.00,512.50 L 152.50,512.00 L 153.00,511.50 L 154.00,511.50 L 154.50,511.00 L 155.00,510.50 L 156.00,510.50 L 156.50,510.00 L 157.00,509.50 L 158.00,509.50 L 158.50,509.00 L 159.00,508.50 L 159.50,508.00 L 160.00,507.50 L 161.00,507.50 L 161.50,507.00 L 162.00,506.50 L 163.00,506.50 L 163.50,506.00 L 164.00,505.50 L 164.50,505.00 L 165.00,504.50 L 166.00,504.50 L 166.50,504.00 L 167.00,503.50 L 167.50,503.00 L 168.00,502.50 L 169.00,502.50 L 169.50,502.00 L 170.00,501.50 L 171.00,501.50 L 171.50,501.00 L 172.00,500.50 L 172.50,500.00 L 173.00,499.50 L 174.00,499.50 L 174.50,499.00 L 175.00,498.50 L 175.50,498.00 L 176.00,497.50 L 177.00,497.50 L 177.50,497.00 L 178.00,496.50 L 178.50,496.00 L 179.00,495.50 L 180.00,495.50 L 180.50,495.00 L 181.00,494.50 L 181.50,494.00 L 182.00,493.50 L 183.00,493.50 L 183.50,493.00 L 184.00,492.50 L 184.50,492.00 L 185.00,491.50 L 186.00,491.50 L 186.50,491.00 L 187.00,490.50 L 187.50,490.00 L 188.00,489.50 L 189.00,489.50 L 189.50,489.00 L 190.00,488.50 L 190.50,488.00 L 191.00,487.50 L 191.50,487.00 L 192.00,486.50 L 193.00,486.50 L 193.50,486.00 L 194.00,485.50 L 195.00,485.50 L 195.50,485.00 L 196.00,484.50 L 196.50,484.00 L 197.00,483.50 L 198.00,483.50 L 198.50,483.00 L 199.00,482.50 L 199.50,482.00 L 200.00,481.50 L 201.00,481.50 L 201.50,481.00 L 202.00,480.50 L 202.50,480.00 L 203.00,479.50 L 204.00,479.50 L 204.50,479.00 L 205.00,478.50 L 205.50,478.00 L 206.00,477.50 L 207.00,477.50 L 207.50,477.00 L 208.00,476.50 L 208.50,476.00 L 209.00,475.50 L 210.00,475.50 L 210.50,475.00 L 211.00,474.50 L 211.50,474.00 L 212.00,473.50 L 213.00,473.50 L 213.50,473.00 L 214.00,472.50 L 215.00,472.50 L 215.50,472.00 L 216.00,471.50 L 216.50,471.00 L 217.00,470.50 L 218.00,470.50 L 218.50,470.00 L 219.00,469.50 L 219.50,469.00 L 220.00,468.50 L 221.00,468.50 L 221.50,468.00 L 222.00,467.50 L 222.50,467.00 L 223.00,466.50 L 224.00,466.50 L 224.50,466.00 L 225.00,465.50 L 225.50,465.00 L 226.00,464.50 L 227.00,464.50 L 227.50,464.00 L 228.00,463.50 L 228.50,463.00 L 229.00,462.50 L 230.00,462.50 L 230.50,462.00 L 231.00,461.50 L 231.50,461.00 L 232.00,460.50 L 233.00,460.50 L 233.50,460.00 L 234.00,459.50 L 234.50,459.00 L 235.00,458.50 L 236.00,458.50 L 236.50,458.00 L 237.00,457.50 L 237.50,457.00 L 238.00,456.50 L 239.00,456.50 L 239.50,456.00 L 240.00,455.50 L 240.50,455.00 L 241.00,454.50 L 242.00,454.50 L 242.50,454.00 L 243.00,453.50 L 243.50,453.00 L 244.00,452.50 L 245.00,452.50 L 245.50,452.00 L 246.00,451.50 L 247.00,451.50 L 247.50,451.00 L 248.00,450.50 L 248.50,450.00 L 249.00,449.50 L 250.00,449.50 L 250.50,449.00 L 251.00,448.50 L 251.50,448.00 L 252.00,447.50 L 252.50,447.00 L 253.00,446.50 L 254.00,446.50 L 254.50,446.00 L 255.00,445.50 L 256.00,445.50 L 256.50,445.00 L 257.00,444.50 L 257.50,444.00 L 258.00,443.50 L 259.00,443.50 L 259.50,443.00 L 260.00,442.50 L 260.50,442.00 L 261.00,441.50 L 262.00,441.50 L 262.50,441.00 L 263.00,440.50 L 263.50,440.00 L 264.00,439.50 L 265.00,439.50 L 265.50,439.00 L 266.00,438.50 L 266.50,438.00 L 267.00,437.50 L 268.00,437.50 L 268.50,437.00 L 269.00,436.50 L 269.50,436.00 L 270.00,435.50 L 271.00,435.50 L 271.50,435.00 L 272.00,434.50 L 272.50,434.00 L 273.00,433.50 L 274.00,433.50 L 274.50,433.00 L 275.00,432.50 L 276.00,432.50 L 276.50,432.00 L 277.00,431.50 L 277.50,431.00 L 278.00,430.50 L 279.00,430.50 L 279.50,430.00 L 280.00,429.50 L 280.50,429.00 L 281.00,428.50 L 282.00,428.50 L 282.50,428.00 L 283.00,427.50 L 283.50,427.00 L 284.00,426.50 L 285.00,426.50 L 285.50,426.00 L 286.00,425.50 L 287.00,425.50 L 287.50,425.00 L 288.00,424.50 L 288.50,424.00 L 289.00,423.50 L 289.50,423.00 L 290.00,422.50 L 291.00,422.50 L 291.50,422.00 L 292.00,421.50 L 292.50,421.00 L 293.00,420.50 L 294.00,420.50 L 294.50,420.00 L 295.00,419.50 L 296.00,419.50 L 296.50,419.00 L 297.00,418.50 L 297.50,418.00 L 298.00,417.50 L 298.50,417.00 L 299.00,416.50 L 300.00,416.50 L 300.50,416.00 L 301.00,415.50 L 301.50,415.00 L 302.00,414.50 L 303.00,414.50 L 303.50,414.00 L 304.00,413.50 L 304.50,413.00 L 305.00,412.50 L 306.00,412.50 L 306.50,412.00 L 307.00,411.50 L 307.50,411.00 L 308.00,410.50 L 309.00,410.50 L 309.50,410.00 L 310.00,409.50 L 310.50,409.00 L 311.00,408.50 L 312.00,408.50 L 312.50,408.00 L 313.00,407.50 L 313.50,407.00 L 314.00,406.50 L 315.00,406.50 L 315.50,406.00 L 316.00,405.50 L 316.50,405.00 L 317.00,404.50 L 318.00,404.50 L 318.50,404.00 L 319.00,403.50 L 319.50,403.00 L 320.00,402.50 L 321.00,402.50 L 321.50,402.00 L 322.00,401.50 L 322.50,401.00 L 323.00,400.50 L 324.00,400.50 L 324.50,400.00 L 325.00,399.50 L 325.50,399.00 L 326.00,398.50 L 327.00,398.50 L 327.50,398.00 L 328.00,397.50 L 329.00,397.50 L 329.50,397.00 L 330.00,396.50 L 330.50,396.00 L 331.00,395.50 L 332.00,395.50 L 332.50,395.00 L 333.00,394.50 L 333.50,394.00 L 334.00,393.50 L 335.00,393.50 L 335.50,393.00 L 336.00,392.50 L 336.50,392.00 L 337.00,391.50 L 337.50,391.00 L 338.00,390.50 L 339.00,390.50 L 339.50,390.00 L 340.00,389.50 L 340.50,389.00 L 341.00,388.50 L 342.00,388.50 L 342.50,388.00 L 343.00,387.50 L 344.00,387.50 L 344.50,387.00 L 345.00,386.50 L 345.50,386.00 L 346.00,385.50 L 347.00,385.50 L 347.50,385.00 L 348.00,384.50 L 349.00,384.50 L 349.50,384.00 L 350.00,383.50 L 350.50,383.00 L 351.00,382.50 L 352.00,382.50 L 352.50,382.00 L 353.00,381.50 L 353.50,381.00 L 354.00,380.50 L 355.00,380.50 L 355.50,380.00 L 356.00,379.50 L 356.50,379.00 L 357.00,378.50 L 357.50,378.00 L 358.00,377.50 L 358.50,377.00 L 359.00,376.50 L 359.50,376.00 L 360.00,375.50 L 361.00,375.50 L 361.50,375.00 L 362.00,374.50 L 362.50,374.00 L 363.00,373.50 L 363.50,373.00 L 364.00,372.50 L 364.50,372.00 L 365.00,371.50 L 365.50,371.00 L 365.50,370.00 L 366.00,369.50 L 366.50,369.00 L 367.00,368.50 L 367.50,368.00 L 368.00,367.50 L 368.50,367.00 L 369.00,366.50 L 369.50,366.00 L 369.50,365.00 L 370.00,364.50 L 370.50,364.00 L 370.50,363.00 L 371.00,362.50 L 371.50,362.00 L 372.00,361.50 L 372.50,361.00 L 372.50,360.00 L 372.50,359.00 L 373.00,358.50 L 373.50,358.00 L 373.50,357.00 L 374.00,356.50 L 374.50,356.00 L 374.50,355.00 L 374.50,354.00 L 374.50,353.00 L 375.00,352.50 L 375.50,352.00 L 375.50,351.00 L 375.50,350.00 L 375.50,349.00 L 375.50,348.00 L 376.00,347.50 L 376.50,347.00 L 376.50,346.00 L 376.50,345.00 L 376.50,344.00 L 376.50,343.00 L 376.50,342.00 L 376.50,341.00 L 376.50,340.00 L 376.50,339.00 L 376.50,338.00 L 376.50,337.00 L 376.50,336.00 L 376.50,335.00 L 376.50,334.00 L 376.00,333.50 L 375.50,333.00 L 375.50,332.00 L 375.50,331.00 L 375.50,330.00 L 375.00,329.50 L 374.50,329.00 L 374.50,328.00 L 374.00,327.50 L 373.50,327.00 L 373.50,326.00 L 373.00,325.50 L 372.50,325.00 L 372.50,324.00 L 372.00,323.50 L 371.50,323.00 L 371.50,322.00 L 371.00,321.50 L 370.50,321.00 L 370.50,320.00 L 370.00,319.50 L 369.50,319.00 L 369.50,318.00 L 369.00,317.50 L 368.50,317.00 L 368.50,316.00 L 368.00,315.50 L 367.50,315.00 L 367.00,314.50 L 366.50,314.00 L 366.00,313.50 L 365.50,313.00 L 365.50,312.00 L 365.00,311.50 L 364.50,311.00 L 364.00,310.50 L 363.50,310.00 L 363.50,309.00 L 363.00,308.50 L 362.50,308.00 L 362.00,307.50 L 361.50,307.00 L 361.00,306.50 L 360.50,306.00 L 360.00,305.50 L 359.50,305.00 L 359.00,304.50 L 358.50,304.00 L 358.00,303.50 L 357.50,303.00 L 357.00,302.50 L 356.50,302.00 L 356.50,301.00 L 356.00,300.50 L 355.50,300.00 L 355.00,299.50 L 354.00,299.50 L 353.50,299.00 L 353.00,298.50 L 352.50,298.00 L 352.00,297.50 L 351.50,297.00 L 351.00,296.50 L 350.50,296.00 L 350.00,295.50 L 349.50,295.00 L 349.00,294.50 L 348.50,294.00 L 348.00,293.50 L 347.00,293.50 L 346.50,293.00 L 346.00,292.50 L 345.50,292.00 L 345.00,291.50 L 344.50,291.00 L 344.00,290.50 L 343.50,290.00 L 343.00,289.50 L 342.50,289.00 L 342.00,288.50 L 341.50,288.00 L 341.00,287.50 L 340.50,287.00 L 340.00,286.50 L 339.50,286.00 L 339.00,285.50 L 338.50,285.00 L 338.00,284.50 L 337.50,284.00 L 337.00,283.50 L 336.00,283.50 L 335.50,283.00 L 335.00,282.50 L 334.50,282.00 L 334.00,281.50 L 333.50,281.00 L 333.00,280.50 L 332.50,280.00 L 332.00,279.50 L 331.00,279.50 L 330.50,279.00 L 330.50,278.00 L 330.00,277.50 L 329.00,277.50 L 328.50,277.00 L 328.00,276.50 L 327.50,276.00 L 327.00,275.50 L 326.50,275.00 L 326.00,274.50 L 325.50,274.00 L 325.00,273.50 L 324.50,273.00 L 324.00,272.50 L 323.50,272.00 L 323.00,271.50 L 322.00,271.50 L 321.50,271.00 L 321.00,270.50 L 320.50,270.00 L 320.00,269.50 L 319.50,269.00 L 319.00,268.50 L 318.50,268.00 L 318.00,267.50 L 317.50,267.00 L 317.00,266.50 L 316.50,266.00 L 316.00,265.50 L 315.50,265.00 L 315.00,264.50 L 314.50,264.00 L 314.00,263.50 L 313.00,263.50 L 312.50,263.00 L 312.00,262.50 L 311.50,262.00 L 311.00,261.50 L 310.50,261.00 L 310.00,260.50 L 309.50,260.00 L 309.00,259.50 L 308.50,259.00 L 308.00,258.50 L 307.50,258.00 L 307.00,257.50 L 306.50,257.00 L 306.00,256.50 L 305.00,256.50 L 304.50,256.00 L 304.00,255.50 L 303.50,255.00 L 303.00,254.50 L 302.50,254.00 L 302.00,253.50 L 301.50,253.00 L 301.00,252.50 L 300.50,252.00 L 300.00,251.50 L 299.50,251.00 L 299.00,250.50 L 298.50,250.00 L 298.00,249.50 L 297.50,249.00 L 297.00,248.50 L 296.50,248.00 L 296.00,247.50 L 295.50,247.00 L 295.00,246.50 L 294.50,246.00 L 294.00,245.50 L 293.50,245.00 L 293.00,244.50 L 292.00,244.50 L 291.50,244.00 L 291.00,243.50 L 290.50,243.00 L 290.00,242.50 L 289.50,242.00 L 289.00,241.50 L 288.50,241.00 L 288.00,240.50 L 287.50,240.00 L 287.00,239.50 L 286.00,239.50 L 285.50,239.00 L 285.00,238.50 L 284.50,238.00 L 284.00,237.50 L 283.50,237.00 L 283.00,236.50 L 282.50,236.00 L 282.00,235.50 L 281.50,235.00 L 281.00,234.50 L 280.50,234.00 L 280.00,233.50 L 279.50,233.00 L 279.00,232.50 L 278.50,232.00 L 278.00,231.50 L 277.00,231.50 L 276.50,231.00 L 276.00,230.50 L 275.50,230.00 L 275.00,229.50 L 274.50,229.00 L 274.00,228.50 L 273.50,228.00 L 273.00,227.50 L 272.50,227.00 L 272.00,226.50 L 271.00,226.50 L 270.50,226.00 L 270.00,225.50 L 269.50,225.00 L 269.00,224.50 L 268.50,224.00 L 268.00,223.50 L 267.00,223.50 L 266.50,223.00 L 266.00,222.50 L 265.00,222.50 L 264.50,222.00 L 264.00,221.50 L 263.50,221.00 L 263.00,220.50 L 262.00,220.50 L 261.00,220.50 L 260.50,220.00 L 260.00,219.50 L 259.00,219.50 L 258.00,219.50 L 257.50,219.00 L 257.00,218.50 L 256.00,218.50 L 255.00,218.50 L 254.50,218.00 L 254.00,217.50 L 253.00,217.50 L 252.00,217.50 L 251.00,217.50 L 250.00,217.50 L 249.00,217.50 L 248.00,217.50 L 247.00,217.50 L 246.50,217.00 L 246.00,216.50 L 245.00,216.50 L 244.00,216.50 L 243.00,216.50 L 242.00,216.50 L 241.50,217.00 L 241.00,217.50 L 240.00,217.50 L 239.00,217.50 L 238.00,217.50 L 237.00,217.50 L 236.00,217.50 L 235.00,217.50 L 234.50,218.00 L 234.00,218.50 L 233.00,218.50 L 232.00,218.50 L 231.50,219.00 L 231.00,219.50 L 230.00,219.50 L 229.50,220.00 L 229.00,220.50 L 228.00,220.50 L 227.50,221.00 L 227.00,221.50 L 226.00,221.50 L 225.50,222.00 L 225.00,222.50 L 224.50,223.00 L 224.00,223.50 L 223.00,223.50 L 222.50,224.00 L 222.00,224.50 L 221.50,225.00 L 221.00,225.50 L 220.50,226.00 L 220.00,226.50 L 219.50,227.00 L 219.50,228.00 L 219.00,228.50 L 218.50,229.00 L 218.00,229.50 L 217.50,230.00 L 217.00,230.50 L 216.50,231.00 L 216.50,232.00 L 216.00,232.50 L 215.50,233.00 L 215.00,233.50 L 214.50,234.00 L 214.50,235.00 L 214.00,235.50 L 213.50,236.00 L 213.50,237.00 L 213.00,237.50 L 212.50,238.00 L 212.50,239.00 L 212.00,239.50 L 211.50,240.00 L 211.50,241.00 L 211.00,241.50 L 210.50,242.00 L 210.50,243.00 L 210.00,243.50 L 209.50,244.00 L 209.50,245.00 L 209.00,245.50 L 208.50,246.00 L 208.50,247.00 L 208.00,247.50 L 207.50,248.00 L 207.50,249.00 L 207.00,249.50 L 206.50,250.00 L 206.50,251.00 L 206.50,252.00 L 206.00,252.50 L 205.50,253.00 L 205.50,254.00 L 205.00,254.50 L 204.50,255.00 L 204.50,256.00 L 204.00,256.50 L 203.50,257.00 L 203.50,258.00 L 203.00,258.50 L 202.50,259.00 L 202.50,260.00 L 202.50,261.00 L 202.00,261.50 L 201.50,262.00 L 201.50,263.00 L 201.00,263.50 L 200.50,264.00 L 200.50,265.00 L 200.00,265.50 L 199.50,266.00 L 199.50,267.00 L 199.00,267.50 L 198.50,268.00 L 198.50,269.00 L 198.50,270.00 L 198.00,270.50 L 197.50,271.00 L 197.50,272.00 L 197.00,272.50 L 196.50,273.00 L 196.50,274.00 L 196.00,274.50 L 195.50,275.00 L 195.50,276.00 L 195.00,276.50 L 194.50,277.00 L 194.50,278.00 L 194.50,279.00 L 194.00,279.50 L 193.50,280.00 L 193.50,281.00 L 193.00,281.50 L 192.50,282.00 L 192.50,283.00 L 192.00,283.50 L 191.50,284.00 L 191.50,285.00 L 191.50,286.00 L 191.00,286.50 L 190.50,287.00 L 190.50,288.00 L 190.00,288.50 L 189.50,289.00 L 189.50,290.00 L 189.00,290.50 L 188.50,291.00 L 188.50,292.00 L 188.00,292.50 L 187.50,293.00 L 187.50,294.00 L 187.00,294.50 L 186.50,295.00 L 186.50,296.00 L 186.50,297.00 L 186.00,297.50 L 185.50,298.00 L 185.50,299.00 L 185.00,299.50 L 184.50,300.00 L 184.50,301.00 L 184.00,301.50 L 183.50,302.00 L 183.50,303.00 L 183.00,303.50 L 182.50,304.00 L 182.50,305.00 L 182.50,306.00 L 182.00,306.50 L 181.50,307.00 L 181.50,308.00 L 181.00,308.50 L 180.50,309.00 L 180.50,310.00 L 180.00,310.50 L 179.50,311.00 L 179.50,312.00 L 179.00,312.50 L 178.50,313.00 L 178.50,314.00 L 178.00,314.50 L 177.50,315.00 L 177.50,316.00 L 177.00,316.50 L 176.50,317.00 L 176.50,318.00 L 176.50,319.00 L 176.00,319.50 L 175.50,320.00 L 175.50,321.00 L 175.50,322.00 L 175.00,322.50 L 174.50,323.00 L 174.50,324.00 L 174.00,324.50 L 173.50,325.00 L 173.50,326.00 L 173.00,326.50 L 172.50,327.00 L 172.50,328.00 L 172.00,328.50 L 171.50,329.00 L 171.50,330.00 L 171.00,330.50 L 170.50,331.00 L 170.50,332.00 L 170.00,332.50 L 169.50,333.00 L 169.50,334.00 L 169.50,335.00 L 169.00,335.50 L 168.50,336.00 L 168.50,337.00 L 168.00,337.50 L 167.50,338.00 L 167.50,339.00 L 167.00,339.50 L 166.50,340.00 L 166.50,341.00 L 166.00,341.50 L 165.50,342.00 L 165.50,343.00 L 165.00,343.50 L 164.50,344.00 L 164.50,345.00 L 164.00,345.50 L 163.50,346.00 L 163.50,347.00 L 163.50,348.00 L 163.00,348.50 L 162.50,349.00 L 162.50,350.00 L 162.00,350.50 L 161.50,351.00 L 161.50,352.00 L 161.50,353.00 L 161.00,353.50 L 160.50,354.00 L 160.50,355.00 L 160.00,355.50 L 159.50,356.00 L 159.50,357.00 L 159.00,357.50 L 158.50,358.00 L 158.50,359.00 L 158.00,359.50 L 157.50,360.00 L 157.50,361.00 L 157.50,362.00 L 157.00,362.50 L 156.50,363.00 L 156.50,364.00 L 156.00,364.50 L 155.50,365.00 L 155.50,366.00 L 155.00,366.50 L 154.50,367.00 L 154.50,368.00 L 154.00,368.50 L 153.50,369.00 L 153.50,370.00 L 153.00,370.50 L 152.50,371.00 L 152.50,372.00 L 152.50,373.00 L 152.00,373.50 L 151.50,374.00 L 151.50,375.00 L 151.00,375.50 L 150.50,376.00 L 150.50,377.00 L 150.50,378.00 L 150.00,378.50 L 149.50,379.00 L 149.50,380.00 L 149.00,380.50 L 148.50,381.00 L 148.50,382.00 L 148.00,382.50 L 147.50,383.00 L 147.50,384.00 L 147.00,384.50 L 146.50,385.00 L 146.50,386.00 L 146.00,386.50 L 145.50,387.00 L 145.50,388.00 L 145.00,388.50 L 144.50,389.00 L 144.50,390.00 L 144.00,390.50 L 143.50,391.00 L 143.50,392.00 L 143.50,393.00 L 143.00,393.50 L 142.50,394.00 L 142.50,395.00 L 142.00,395.50 L 141.50,396.00 L 141.50,397.00 L 141.00,397.50 L 140.50,398.00 L 140.50,399.00 L 140.50,400.00 L 140.00,400.50 L 139.50,401.00 L 139.50,402.00 L 139.00,402.50 L 138.50,403.00 L 138.50,404.00 L 138.00,404.50 L 137.50,405.00 L 137.50,406.00 L 137.00,406.50 L 136.50,407.00 L 136.50,408.00 L 136.00,408.50 L 135.50,409.00 L 135.50,410.00 L 135.50,411.00 L 135.00,411.50 L 134.50,412.00 L 134.50,413.00 L 134.00,413.50 L 133.50,414.00 L 133.50,415.00 L 133.00,415.50 L 132.50,416.00 L 132.50,417.00 L 132.50,418.00 L 132.00,418.50 L 131.50,419.00 L 131.50,420.00 L 131.00,420.50 L 130.50,421.00 L 130.50,422.00 L 130.50,423.00 L 130.00,423.50 L 129.50,424.00 L 129.50,425.00 L 129.00,425.50 L 128.50,426.00 L 128.50,427.00 L 128.00,427.50 L 127.50,428.00 L 127.50,429.00 L 127.00,429.50 L 126.50,430.00 L 126.50,431.00 L 126.00,431.50 L 125.50,432.00 L 125.50,433.00 L 125.50,434.00 L 125.00,434.50 L 124.50,435.00 L 124.50,436.00 L 124.00,436.50 L 123.50,437.00 L 123.50,438.00 L 123.50,439.00 L 123.00,439.50 L 122.50,440.00 L 122.50,441.00 L 122.00,441.50 L 121.50,442.00 L 121.50,443.00 L 121.00,443.50 L 120.50,444.00 L 120.50,445.00 L 120.00,445.50 L 119.50,446.00 L 119.50,447.00 L 119.00,447.50 L 118.50,448.00 L 118.50,449.00 L 118.00,449.50 L 117.50,450.00 L 117.50,451.00 L 117.50,452.00 L 117.00,452.50 L 116.50,453.00 L 116.50,454.00 L 116.00,454.50 L 115.50,455.00 L 115.50,456.00 L 115.00,456.50 L 114.50,457.00 L 114.50,458.00 L 114.00,458.50 L 113.50,459.00 L 113.50,460.00 L 113.00,460.50 L 112.50,461.00 L 112.50,462.00 L 112.50,463.00 L 112.00,463.50 L 111.50,464.00 L 111.50,465.00 L 111.00,465.50 L 110.50,466.00 L 110.50,467.00 L 110.00,467.50 L 109.50,468.00 L 109.50,469.00 L 109.50,470.00 L 109.00,470.50 L 108.50,471.00 L 108.50,472.00 L 108.00,472.50 L 107.50,473.00 L 107.50,474.00 L 107.50,475.00 L 107.50,476.00 L 107.50,477.00 L 107.50,478.00 L 107.50,479.00 L 107.50,480.00 L 107.50,481.00 L 107.50,482.00 L 107.50,483.00 L 107.50,484.00 L 107.50,485.00 L 107.50,486.00 L 108.00,486.50 L 108.50,487.00 L 108.50,488.00 L 108.50,489.00 L 109.00,489.50 L 109.50,490.00 L 109.50,491.00 L 109.50,492.00 L 110.00,492.50 L 110.50,493.00 L 110.50,494.00 L 111.00,494.50 L 111.50,495.00 L 112.00,495.50 L 112.50,496.00 L 113.00,496.50 L 113.50,497.00 L 114.00,497.50 L 114.50,498.00 L 115.00,498.50 L 115.50,499.00 L 116.00,499.50 L 116.50,500.00 L 117.00,500.50 L 117.50,501.00 L 118.00,501.50 L 118.50,502.00 L 119.00,502.50 L 119.50,503.00 L 120.00,503.50 L 120.50,504.00 L 121.00,504.50 L 121.50,505.00 L 122.00,505.50 L 122.50,506.00 L 123.00,506.50 L 123.50,507.00 L 124.00,507.50 L 124.50,508.00 L 125.00,508.50 L 125.50,509.00 L 126.00,509.50 L 126.50,510.00 L 127.00,510.50 L 128.00,510.50 L 128.50,511.00 L 129.00,511.50 L 130.00,511.50 L 130.50,512.00 L 131.00,512.50 L 132.00,512.50 L 132.50,513.00 L 133.00,513.50 L 134.00,513.50 L 135.00,513.50 L 136.00,513.50 L 137.00,513.50 L 138.00,513.50 L 139.00,513.50 L 140.00,513.50 L 141.00,513.50 L 142.00,513.50 L 143.00,513.50 L 144.00,513.50 L 145.00,513.50 L 146.00,513.50 L 147.00,513.50 L 148.00,513.50 L 149.00,513.50 L 150.00,513.50 L 150.50,513.00 Z"/><path d="M 172.50,743.00 L 173.00,742.50 L 174.00,742.50 L 175.00,742.50 L 176.00,742.50 L 177.00,742.50 L 178.00,742.50 L 178.50,742.00 L 179.00,741.50 L 180.00,741.50 L 181.00,741.50 L 182.00,741.50 L 182.50,741.00 L 183.00,740.50 L 184.00,740.50 L 185.00,740.50 L 186.00,740.50 L 187.00,740.50 L 187.50,740.00 L 188.00,739.50 L 189.00,739.50 L 190.00,739.50 L 190.50,739.00 L 191.00,738.50 L 192.00,738.50 L 192.50,738.00 L 193.00,737.50 L 194.00,737.50 L 195.00,737.50 L 195.50,737.00 L 196.00,736.50 L 197.00,736.50 L 197.50,736.00 L 198.00,735.50 L 199.00,735.50 L 200.00,735.50 L 200.50,735.00 L 201.00,734.50 L 202.00,734.50 L 202.50,734.00 L 203.00,733.50 L 204.00,733.50 L 204.50,733.00 L 205.00,732.50 L 206.00,732.50 L 206.50,732.00 L 207.00,731.50 L 208.00,731.50 L 208.50,731.00 L 209.00,730.50 L 209.50,730.00 L 210.00,729.50 L 211.00,729.50 L 211.50,729.00 L 212.00,728.50 L 213.00,728.50 L 213.50,728.00 L 214.00,727.50 L 214.50,727.00 L 215.00,726.50 L 215.50,726.00 L 216.00,725.50 L 216.50,725.00 L 217.00,724.50 L 217.50,724.00 L 218.00,723.50 L 218.50,723.00 L 219.00,722.50 L 219.50,722.00 L 220.00,721.50 L 220.50,721.00 L 221.00,720.50 L 221.50,720.00 L 222.00,719.50 L 222.50,719.00 L 223.00,718.50 L 223.50,718.00 L 224.00,717.50 L 224.50,717.00 L 225.00,716.50 L 225.50,716.00 L 226.00,715.50 L 226.50,715.00 L 226.50,714.00 L 227.00,713.50 L 227.50,713.00 L 228.00,712.50 L 228.50,712.00 L 228.50,711.00 L 229.00,710.50 L 229.50,710.00 L 230.00,709.50 L 230.50,709.00 L 230.50,708.00 L 231.00,707.50 L 231.50,707.00 L 232.00,706.50 L 232.50,706.00 L 232.50,705.00 L 233.00,704.50 L 233.50,704.00 L 233.50,703.00 L 234.00,702.50 L 234.50,702.00 L 235.00,701.50 L 235.50,701.00 L 235.50,700.00 L 236.00,699.50 L 236.50,699.00 L 236.50,698.00 L 237.00,697.50 L 237.50,697.00 L 237.50,696.00 L 238.00,695.50 L 238.50,695.00 L 238.50,694.00 L 239.00,693.50 L 239.50,693.00 L 239.50,692.00 L 240.00,691.50 L 240.50,691.00 L 240.50,690.00 L 241.00,689.50 L 241.50,689.00 L 241.50,688.00 L 241.50,687.00 L 242.00,686.50 L 242.50,686.00 L 242.50,685.00 L 243.00,684.50 L 243.50,684.00 L 243.50,683.00 L 244.00,682.50 L 244.50,682.00 L 244.50,681.00 L 244.50,680.00 L 245.00,679.50 L 245.50,679.00 L 245.50,678.00 L 246.00,677.50 L 246.50,677.00 L 246.50,676.00 L 246.50,675.00 L 247.00,674.50 L 247.50,674.00 L 247.50,673.00 L 247.50,672.00 L 248.00,671.50 L 248.50,671.00 L 248.50,670.00 L 249.00,669.50 L 249.50,669.00 L 249.50,668.00 L 249.50,667.00 L 250.00,666.50 L 250.50,666.00 L 250.50,665.00 L 250.50,664.00 L 251.00,663.50 L 251.50,663.00 L 251.50,662.00 L 251.50,661.00 L 252.00,660.50 L 252.50,660.00 L 252.50,659.00 L 252.50,658.00 L 252.50,657.00 L 253.00,656.50 L 253.50,656.00 L 253.50,655.00 L 254.00,654.50 L 254.50,654.00 L 254.50,653.00 L 254.50,652.00 L 255.00,651.50 L 255.50,651.00 L 255.50,650.00 L 255.50,649.00 L 256.00,648.50 L 256.50,648.00 L 256.50,647.00 L 256.50,646.00 L 257.00,645.50 L 257.50,645.00 L 257.50,644.00 L 257.50,643.00 L 258.00,642.50 L 258.50,642.00 L 258.50,641.00 L 258.50,640.00 L 259.00,639.50 L 259.50,639.00 L 259.50,638.00 L 259.50,637.00 L 260.00,636.50 L 260.50,636.00 L 260.50,635.00 L 261.00,634.50 L 261.50,634.00 L 261.50,633.00 L 261.50,632.00 L 262.00,631.50 L 262.50,631.00 L 262.50,630.00 L 263.00,629.50 L 263.50,629.00 L 263.50,628.00 L 263.50,627.00 L 264.00,626.50 L 264.50,626.00 L 264.50,625.00 L 265.00,624.50 L 265.50,624.00 L 265.50,623.00 L 266.00,622.50 L 266.50,622.00 L 266.50,621.00 L 267.00,620.50 L 267.50,620.00 L 267.50,619.00 L 268.00,618.50 L 268.50,618.00 L 268.50,617.00 L 269.00,616.50 L 269.50,616.00 L 269.50,615.00 L 270.00,614.50 L 270.50,614.00 L 270.50,613.00 L 271.00,612.50 L 271.50,612.00 L 271.50,611.00 L 272.00,610.50 L 272.50,610.00 L 273.00,609.50 L 273.50,609.00 L 273.50,608.00 L 274.00,607.50 L 274.50,607.00 L 275.00,606.50 L 275.50,606.00 L 276.00,605.50 L 276.50,605.00 L 276.50,604.00 L 277.00,603.50 L 277.50,603.00 L 278.00,602.50 L 278.50,602.00 L 278.50,601.00 L 279.00,600.50 L 279.50,600.00 L 280.00,599.50 L 280.50,599.00 L 281.00,598.50 L 281.50,598.00 L 282.00,597.50 L 282.50,597.00 L 283.00,596.50 L 283.50,596.00 L 283.50,595.00 L 284.00,594.50 L 284.50,594.00 L 285.00,593.50 L 285.50,593.00 L 286.00,592.50 L 286.50,592.00 L 287.00,591.50 L 287.50,591.00 L 288.00,590.50 L 288.50,590.00 L 289.00,589.50 L 289.50,589.00 L 290.00,588.50 L 290.50,588.00 L 291.00,587.50 L 292.00,587.50 L 292.50,587.00 L 293.00,586.50 L 293.50,586.00 L 294.00,585.50 L 294.50,585.00 L 295.00,584.50 L 295.50,584.00 L 296.00,583.50 L 296.50,583.00 L 297.00,582.50 L 298.00,582.50 L 298.50,582.00 L 299.00,581.50 L 299.50,581.00 L 300.00,580.50 L 300.50,580.00 L 301.00,579.50 L 301.50,579.00 L 302.00,578.50 L 303.00,578.50 L 303.50,578.00 L 304.00,577.50 L 304.50,577.00 L 305.00,576.50 L 306.00,576.50 L 306.50,576.00 L 307.00,575.50 L 308.00,575.50 L 308.50,575.00 L 309.00,574.50 L 310.00,574.50 L 310.50,574.00 L 311.00,573.50 L 311.50,573.00 L 312.00,572.50 L 313.00,572.50 L 313.50,572.00 L 314.00,571.50 L 315.00,571.50 L 315.50,571.00 L 316.00,570.50 L 317.00,570.50 L 317.50,570.00 L 318.00,569.50 L 319.00,569.50 L 319.50,569.00 L 320.00,568.50 L 321.00,568.50 L 321.50,568.00 L 322.00,567.50 L 323.00,567.50 L 323.50,567.00 L 324.00,566.50 L 325.00,566.50 L 326.00,566.50 L 326.50,566.00 L 327.00,565.50 L 328.00,565.50 L 329.00,565.50 L 329.50,565.00 L 330.00,564.50 L 331.00,564.50 L 331.50,564.00 L 332.00,563.50 L 333.00,563.50 L 334.00,563.50 L 335.00,563.50 L 336.00,563.50 L 336.50,563.00 L 337.00,562.50 L 338.00,562.50 L 339.00,562.50 L 339.50,562.00 L 340.00,561.50 L 341.00,561.50 L 342.00,561.50 L 342.50,561.00 L 343.00,560.50 L 344.00,560.50 L 345.00,560.50 L 346.00,560.50 L 346.50,560.00 L 347.00,559.50 L 348.00,559.50 L 349.00,559.50 L 350.00,559.50 L 350.50,559.00 L 351.00,558.50 L 352.00,558.50 L 353.00,558.50 L 354.00,558.50 L 355.00,558.50 L 356.00,558.50 L 357.00,558.50 L 358.00,558.50 L 359.00,558.50 L 360.00,558.50 L 361.00,558.50 L 362.00,558.50 L 363.00,558.50 L 364.00,558.50 L 365.00,558.50 L 366.00,558.50 L 367.00,558.50 L 368.00,558.50 L 369.00,558.50 L 369.50,558.00 L 370.00,557.50 L 371.00,557.50 L 372.00,557.50 L 373.00,557.50 L 374.00,557.50 L 375.00,557.50 L 376.00,557.50 L 377.00,557.50 L 378.00,557.50 L 379.00,557.50 L 380.00,557.50 L 381.00,557.50 L 382.00,557.50 L 383.00,557.50 L 384.00,557.50 L 385.00,557.50 L 386.00,557.50 L 387.00,557.50 L 388.00,557.50 L 389.00,557.50 L 390.00,557.50 L 391.00,557.50 L 392.00,557.50 L 393.00,557.50 L 394.00,557.50 L 395.00,557.50 L 396.00,557.50 L 397.00,557.50 L 398.00,557.50 L 399.00,557.50 L 400.00,557.50 L 401.00,557.50 L 402.00,557.50 L 403.00,557.50 L 404.00,557.50 L 405.00,557.50 L 406.00,557.50 L 407.00,557.50 L 408.00,557.50 L 409.00,557.50 L 410.00,557.50 L 411.00,557.50 L 412.00,557.50 L 413.00,557.50 L 414.00,557.50 L 415.00,557.50 L 416.00,557.50 L 417.00,557.50 L 418.00,557.50 L 419.00,557.50 L 420.00,557.50 L 421.00,557.50 L 422.00,557.50 L 423.00,557.50 L 424.00,557.50 L 425.00,557.50 L 426.00,557.50 L 427.00,557.50 L 428.00,557.50 L 429.00,557.50 L 430.00,557.50 L 431.00,557.50 L 432.00,557.50 L 433.00,557.50 L 434.00,557.50 L 435.00,557.50 L 436.00,557.50 L 437.00,557.50 L 438.00,557.50 L 439.00,557.50 L 440.00,557.50 L 441.00,557.50 L 442.00,557.50 L 443.00,557.50 L 444.00,557.50 L 445.00,557.50 L 446.00,557.50 L 447.00,557.50 L 448.00,557.50 L 449.00,557.50 L 450.00,557.50 L 451.00,557.50 L 452.00,557.50 L 452.50,557.00 L 453.00,556.50 L 454.00,556.50 L 455.00,556.50 L 456.00,556.50 L 457.00,556.50 L 458.00,556.50 L 459.00,556.50 L 460.00,556.50 L 461.00,556.50 L 461.50,556.00 L 462.00,555.50 L 463.00,555.50 L 464.00,555.50 L 465.00,555.50 L 466.00,555.50 L 467.00,555.50 L 467.50,555.00 L 468.00,554.50 L 469.00,554.50 L 470.00,554.50 L 471.00,554.50 L 472.00,554.50 L 472.50,554.00 L 473.00,553.50 L 474.00,553.50 L 475.00,553.50 L 475.50,553.00 L 476.00,552.50 L 477.00,552.50 L 478.00,552.50 L 478.50,552.00 L 479.00,551.50 L 480.00,551.50 L 481.00,551.50 L 481.50,551.00 L 482.00,550.50 L 483.00,550.50 L 484.00,550.50 L 485.00,550.50 L 485.50,550.00 L 486.00,549.50 L 487.00,549.50 L 487.50,549.00 L 488.00,548.50 L 489.00,548.50 L 490.00,548.50 L 490.50,548.00 L 491.00,547.50 L 492.00,547.50 L 492.50,547.00 L 493.00,546.50 L 494.00,546.50 L 494.50,546.00 L 495.00,545.50 L 496.00,545.50 L 496.50,545.00 L 497.00,544.50 L 498.00,544.50 L 498.50,544.00 L 499.00,543.50 L 499.50,543.00 L 500.00,542.50 L 501.00,542.50 L 501.50,542.00 L 502.00,541.50 L 502.50,541.00 L 503.00,540.50 L 503.50,540.00 L 504.00,539.50 L 504.50,539.00 L 505.00,538.50 L 505.50,538.00 L 506.00,537.50 L 506.50,537.00 L 507.00,536.50 L 507.50,536.00 L 508.00,535.50 L 508.50,535.00 L 509.00,534.50 L 509.50,534.00 L 510.00,533.50 L 510.50,533.00 L 511.00,532.50 L 511.50,532.00 L 512.00,531.50 L 512.50,531.00 L 513.00,530.50 L 513.50,530.00 L 513.50,529.00 L 514.00,528.50 L 514.50,528.00 L 515.00,527.50 L 515.50,527.00 L 515.50,526.00 L 516.00,525.50 L 516.50,525.00 L 517.00,524.50 L 517.50,524.00 L 518.00,523.50 L 518.50,523.00 L 518.50,522.00 L 519.00,521.50 L 519.50,521.00 L 520.00,520.50 L 520.50,520.00 L 520.50,519.00 L 521.00,518.50 L 521.50,518.00 L 521.50,517.00 L 522.00,516.50 L 522.50,516.00 L 522.50,515.00 L 523.00,514.50 L 523.50,514.00 L 523.50,513.00 L 524.00,512.50 L 524.50,512.00 L 524.50,511.00 L 524.50,510.00 L 525.00,509.50 L 525.50,509.00 L 525.50,508.00 L 526.00,507.50 L 526.50,507.00 L 526.50,506.00 L 526.50,505.00 L 527.00,504.50 L 527.50,504.00 L 527.50,503.00 L 527.50,502.00 L 527.50,501.00 L 528.00,500.50 L 528.50,500.00 L 528.50,499.00 L 528.50,498.00 L 528.50,497.00 L 528.50,496.00 L 528.50,495.00 L 529.00,494.50 L 529.50,494.00 L 529.50,493.00 L 529.50,492.00 L 529.50,491.00 L 529.50,490.00 L 529.50,489.00 L 529.50,488.00 L 529.50,487.00 L 529.50,486.00 L 529.50,485.00 L 529.50,484.00 L 529.50,483.00 L 529.50,482.00 L 529.50,481.00 L 529.00,480.50 L 528.50,480.00 L 528.50,479.00 L 528.50,478.00 L 528.50,477.00 L 528.50,476.00 L 528.00,475.50 L 527.50,475.00 L 527.50,474.00 L 527.50,473.00 L 527.50,472.00 L 527.00,471.50 L 526.50,471.00 L 526.50,470.00 L 526.00,469.50 L 525.50,469.00 L 525.50,468.00 L 525.00,467.50 L 524.50,467.00 L 524.50,466.00 L 524.50,465.00 L 524.00,464.50 L 523.50,464.00 L 523.50,463.00 L 523.00,462.50 L 522.50,462.00 L 522.50,461.00 L 522.00,460.50 L 521.50,460.00 L 521.50,459.00 L 521.00,458.50 L 520.50,458.00 L 520.00,457.50 L 519.50,457.00 L 519.50,456.00 L 519.00,455.50 L 518.50,455.00 L 518.00,454.50 L 517.50,454.00 L 517.50,453.00 L 517.00,452.50 L 516.50,452.00 L 516.00,451.50 L 515.50,451.00 L 515.50,450.00 L 515.00,449.50 L 514.50,449.00 L 514.00,448.50 L 513.50,448.00 L 513.00,447.50 L 512.50,447.00 L 512.00,446.50 L 511.50,446.00 L 511.00,445.50 L 510.50,445.00 L 510.00,444.50 L 509.50,444.00 L 509.50,443.00 L 509.00,442.50 L 508.50,442.00 L 508.00,441.50 L 507.50,441.00 L 507.00,440.50 L 506.50,440.00 L 506.00,439.50 L 505.50,439.00 L 505.00,438.50 L 504.50,438.00 L 504.00,437.50 L 503.50,437.00 L 503.00,436.50 L 502.50,436.00 L 502.00,435.50 L 501.50,435.00 L 501.00,434.50 L 500.50,434.00 L 500.00,433.50 L 499.50,433.00 L 499.00,432.50 L 498.00,432.50 L 497.50,432.00 L 497.00,431.50 L 496.50,431.00 L 496.00,430.50 L 495.50,430.00 L 495.00,429.50 L 494.50,429.00 L 494.00,428.50 L 493.50,428.00 L 493.00,427.50 L 492.00,427.50 L 491.50,427.00 L 491.00,426.50 L 490.50,426.00 L 490.00,425.50 L 489.50,425.00 L 489.00,424.50 L 488.50,424.00 L 488.00,423.50 L 487.00,423.50 L 486.50,423.00 L 486.00,422.50 L 485.50,422.00 L 485.00,421.50 L 484.50,421.00 L 484.00,420.50 L 483.00,420.50 L 482.50,420.00 L 482.00,419.50 L 481.50,419.00 L 481.00,418.50 L 480.50,418.00 L 480.00,417.50 L 479.00,417.50 L 478.50,417.00 L 478.00,416.50 L 477.50,416.00 L 477.00,415.50 L 476.50,415.00 L 476.00,414.50 L 475.50,414.00 L 475.00,413.50 L 474.00,413.50 L 473.50,413.00 L 473.00,412.50 L 472.50,412.00 L 472.00,411.50 L 471.50,411.00 L 471.00,410.50 L 470.00,410.50 L 469.50,410.00 L 469.00,409.50 L 468.50,409.00 L 468.00,408.50 L 467.00,408.50 L 466.50,408.00 L 466.00,407.50 L 465.00,407.50 L 464.50,407.00 L 464.00,406.50 L 463.50,406.00 L 463.00,405.50 L 462.00,405.50 L 461.50,405.00 L 461.00,404.50 L 460.00,404.50 L 459.50,404.00 L 459.00,403.50 L 458.50,403.00 L 458.00,402.50 L 457.00,402.50 L 456.50,402.00 L 456.00,401.50 L 455.00,401.50 L 454.50,401.00 L 454.00,400.50 L 453.00,400.50 L 452.50,400.00 L 452.00,399.50 L 451.00,399.50 L 450.50,399.00 L 450.00,398.50 L 449.00,398.50 L 448.50,398.00 L 448.00,397.50 L 447.00,397.50 L 446.00,397.50 L 445.50,397.00 L 445.00,396.50 L 444.00,396.50 L 443.50,396.00 L 443.00,395.50 L 442.00,395.50 L 441.00,395.50 L 440.00,395.50 L 439.50,395.00 L 439.00,394.50 L 438.00,394.50 L 437.00,394.50 L 436.00,394.50 L 435.50,394.00 L 435.00,393.50 L 434.00,393.50 L 433.00,393.50 L 432.00,393.50 L 431.00,393.50 L 430.50,393.00 L 430.00,392.50 L 429.00,392.50 L 428.00,392.50 L 427.00,392.50 L 426.00,392.50 L 425.00,392.50 L 424.00,392.50 L 423.00,392.50 L 422.00,392.50 L 421.00,392.50 L 420.00,392.50 L 419.00,392.50 L 418.00,392.50 L 417.00,392.50 L 416.00,392.50 L 415.00,392.50 L 414.00,392.50 L 413.00,392.50 L 412.00,392.50 L 411.00,392.50 L 410.00,392.50 L 409.50,393.00 L 409.00,393.50 L 408.00,393.50 L 407.00,393.50 L 406.00,393.50 L 405.00,393.50 L 404.00,393.50 L 403.50,394.00 L 403.00,394.50 L 402.00,394.50 L 401.00,394.50 L 400.00,394.50 L 399.50,395.00 L 399.00,395.50 L 398.00,395.50 L 397.00,395.50 L 396.50,396.00 L 396.00,396.50 L 395.00,396.50 L 394.00,396.50 L 393.00,396.50 L 392.50,397.00 L 392.00,397.50 L 391.00,397.50 L 390.00,397.50 L 389.50,398.00 L 389.00,398.50 L 388.00,398.50 L 387.50,399.00 L 387.00,399.50 L 386.00,399.50 L 385.00,399.50 L 384.50,400.00 L 384.00,400.50 L 383.00,400.50 L 382.50,401.00 L 382.00,401.50 L 381.00,401.50 L 380.50,402.00 L 380.00,402.50 L 379.50,403.00 L 379.00,403.50 L 378.00,403.50 L 377.50,404.00 L 377.00,404.50 L 376.00,404.50 L 375.50,405.00 L 375.00,405.50 L 374.00,405.50 L 373.50,406.00 L 373.00,406.50 L 372.00,406.50 L 371.50,407.00 L 371.00,407.50 L 370.00,407.50 L 369.50,408.00 L 369.00,408.50 L 368.50,409.00 L 368.00,409.50 L 367.00,409.50 L 366.50,410.00 L 366.00,410.50 L 365.00,410.50 L 364.50,411.00 L 364.00,411.50 L 363.50,412.00 L 363.00,412.50 L 362.00,412.50 L 361.50,413.00 L 361.00,413.50 L 360.00,413.50 L 359.50,414.00 L 359.00,414.50 L 358.50,415.00 L 358.00,415.50 L 357.00,415.50 L 356.50,416.00 L 356.00,416.50 L 355.50,417.00 L 355.00,417.50 L 354.00,417.50 L 353.50,418.00 L 353.00,418.50 L 352.50,419.00 L 352.00,419.50 L 351.00,419.50 L 350.50,420.00 L 350.00,420.50 L 349.00,420.50 L 348.50,421.00 L 348.00,421.50 L 347.50,422.00 L 347.00,422.50 L 346.50,423.00 L 346.00,423.50 L 345.00,423.50 L 344.50,424.00 L 344.00,424.50 L 343.50,425.00 L 343.00,425.50 L 342.00,425.50 L 341.50,426.00 L 341.00,426.50 L 340.50,427.00 L 340.00,427.50 L 339.00,427.50 L 338.50,428.00 L 338.00,428.50 L 337.50,429.00 L 337.00,429.50 L 336.00,429.50 L 335.50,430.00 L 335.00,430.50 L 334.00,430.50 L 333.50,431.00 L 333.00,431.50 L 332.00,431.50 L 331.50,432.00 L 331.00,432.50 L 330.50,433.00 L 330.00,433.50 L 329.00,433.50 L 328.50,434.00 L 328.00,434.50 L 327.50,435.00 L 327.00,435.50 L 326.00,435.50 L 325.50,436.00 L 325.00,436.50 L 324.50,437.00 L 324.00,437.50 L 323.00,437.50 L 322.50,438.00 L 322.00,438.50 L 321.50,439.00 L 321.00,439.50 L 320.00,439.50 L 319.50,440.00 L 319.00,440.50 L 318.50,441.00 L 318.00,441.50 L 317.50,442.00 L 317.00,442.50 L 316.00,442.50 L 315.50,443.00 L 315.00,443.50 L 314.00,443.50 L 313.50,444.00 L 313.00,444.50 L 312.50,445.00 L 312.00,445.50 L 311.00,445.50 L 310.50,446.00 L 310.00,446.50 L 309.00,446.50 L 308.50,447.00 L 308.00,447.50 L 307.50,448.00 L 307.00,448.50 L 306.00,448.50 L 305.50,449.00 L 305.00,449.50 L 304.50,450.00 L 304.00,450.50 L 303.00,450.50 L 302.50,451.00 L 302.00,451.50 L 301.50,452.00 L 301.00,452.50 L 300.00,452.50 L 299.50,453.00 L 299.00,453.50 L 298.50,454.00 L 298.00,454.50 L 297.00,454.50 L 296.50,455.00 L 296.00,455.50 L 295.50,456.00 L 295.00,456.50 L 294.00,456.50 L 293.50,457.00 L 293.00,457.50 L 292.00,457.50 L 291.50,458.00 L 291.00,458.50 L 290.50,459.00 L 290.00,459.50 L 289.00,459.50 L 288.50,460.00 L 288.00,460.50 L 287.50,461.00 L 287.00,461.50 L 286.00,461.50 L 285.50,462.00 L 285.00,462.50 L 284.50,463.00 L 284.00,463.50 L 283.00,463.50 L 282.50,464.00 L 282.00,464.50 L 281.50,465.00 L 281.00,465.50 L 280.00,465.50 L 279.50,466.00 L 279.00,466.50 L 278.50,467.00 L 278.00,467.50 L 277.00,467.50 L 276.50,468.00 L 276.00,468.50 L 275.50,469.00 L 275.00,469.50 L 274.00,469.50 L 273.50,470.00 L 273.00,470.50 L 272.00,470.50 L 271.50,471.00 L 271.00,471.50 L 270.50,472.00 L 270.00,472.50 L 269.00,472.50 L 268.50,473.00 L 268.00,473.50 L 267.50,474.00 L 267.00,474.50 L 266.00,474.50 L 265.50,475.00 L 265.00,475.50 L 264.50,476.00 L 264.00,476.50 L 263.00,476.50 L 262.50,477.00 L 262.00,477.50 L 261.50,478.00 L 261.00,478.50 L 260.00,478.50 L 259.50,479.00 L 259.00,479.50 L 258.50,480.00 L 258.00,480.50 L 257.00,480.50 L 256.50,481.00 L 256.00,481.50 L 255.00,481.50 L 254.50,482.00 L 254.00,482.50 L 253.50,483.00 L 253.00,483.50 L 252.00,483.50 L 251.50,484.00 L 251.00,484.50 L 250.50,485.00 L 250.00,485.50 L 249.00,485.50 L 248.50,486.00 L 248.00,486.50 L 247.00,486.50 L 246.50,487.00 L 246.00,487.50 L 245.50,488.00 L 245.00,488.50 L 244.00,488.50 L 243.50,489.00 L 243.00,489.50 L 242.50,490.00 L 242.00,490.50 L 241.00,490.50 L 240.50,491.00 L 240.00,491.50 L 239.50,492.00 L 239.00,492.50 L 238.00,492.50 L 237.50,493.00 L 237.00,493.50 L 236.50,494.00 L 236.00,494.50 L 235.00,494.50 L 234.50,495.00 L 234.00,495.50 L 233.50,496.00 L 233.00,496.50 L 232.00,496.50 L 231.50,497.00 L 231.00,497.50 L 230.00,497.50 L 229.50,498.00 L 229.00,498.50 L 228.50,499.00 L 228.00,499.50 L 227.00,499.50 L 226.50,500.00 L 226.00,500.50 L 225.50,501.00 L 225.00,501.50 L 224.00,501.50 L 223.50,502.00 L 223.00,502.50 L 222.50,503.00 L 222.00,503.50 L 221.00,503.50 L 220.50,504.00 L 220.00,504.50 L 219.00,504.50 L 218.50,505.00 L 218.00,505.50 L 217.50,506.00 L 217.00,506.50 L 216.00,506.50 L 215.50,507.00 L 215.00,507.50 L 214.50,508.00 L 214.00,508.50 L 213.00,508.50 L 212.50,509.00 L 212.00,509.50 L 211.50,510.00 L 211.00,510.50 L 210.00,510.50 L 209.50,511.00 L 209.00,511.50 L 208.00,511.50 L 207.50,512.00 L 207.00,512.50 L 206.50,513.00 L 206.00,513.50 L 205.50,514.00 L 205.00,514.50 L 204.00,514.50 L 203.50,515.00 L 203.00,515.50 L 202.50,516.00 L 202.00,516.50 L 201.00,516.50 L 200.50,517.00 L 200.00,517.50 L 199.50,518.00 L 199.00,518.50 L 198.00,518.50 L 197.50,519.00 L 197.00,519.50 L 196.00,519.50 L 195.50,520.00 L 195.00,520.50 L 194.50,521.00 L 194.00,521.50 L 193.00,521.50 L 192.50,522.00 L 192.00,522.50 L 191.00,522.50 L 190.50,523.00 L 190.00,523.50 L 189.50,524.00 L 189.00,524.50 L 188.00,524.50 L 187.50,525.00 L 187.00,525.50 L 186.50,526.00 L 186.00,526.50 L 185.00,526.50 L 184.50,527.00 L 184.00,527.50 L 183.00,527.50 L 182.50,528.00 L 182.00,528.50 L 181.50,529.00 L 181.00,529.50 L 180.50,530.00 L 180.00,530.50 L 179.00,530.50 L 178.50,531.00 L 178.00,531.50 L 177.00,531.50 L 176.50,532.00 L 176.00,532.50 L 175.50,533.00 L 175.00,533.50 L 174.00,533.50 L 173.50,534.00 L 173.00,534.50 L 172.50,535.00 L 172.00,535.50 L 171.00,535.50 L 170.50,536.00 L 170.00,536.50 L 169.50,537.00 L 169.00,537.50 L 168.50,538.00 L 168.00,538.50 L 167.00,538.50 L 166.50,539.00 L 166.00,539.50 L 165.00,539.50 L 164.50,540.00 L 164.00,540.50 L 163.50,541.00 L 163.00,541.50 L 162.50,542.00 L 162.00,542.50 L 161.00,542.50 L 160.50,543.00 L 160.00,543.50 L 159.50,544.00 L 159.00,544.50 L 158.00,544.50 L 157.50,545.00 L 157.00,545.50 L 156.00,545.50 L 155.50,546.00 L 155.00,546.50 L 154.50,547.00 L 154.00,547.50 L 153.00,547.50 L 152.50,548.00 L 152.00,548.50 L 151.50,549.00 L 151.00,549.50 L 150.00,549.50 L 149.50,550.00 L 149.00,550.50 L 148.50,551.00 L 148.00,551.50 L 147.00,551.50 L 146.50,552.00 L 146.00,552.50 L 145.00,552.50 L 144.50,553.00 L 144.00,553.50 L 143.50,554.00 L 143.00,554.50 L 142.00,554.50 L 141.50,555.00 L 141.00,555.50 L 140.50,556.00 L 140.00,556.50 L 139.00,556.50 L 138.50,557.00 L 138.00,557.50 L 137.50,558.00 L 137.00,558.50 L 136.00,558.50 L 135.50,559.00 L 135.00,559.50 L 134.50,560.00 L 134.00,560.50 L 133.00,560.50 L 132.50,561.00 L 132.00,561.50 L 131.50,562.00 L 131.00,562.50 L 130.00,562.50 L 129.50,563.00 L 129.00,563.50 L 128.50,564.00 L 128.00,564.50 L 127.50,565.00 L 127.00,565.50 L 126.50,566.00 L 126.00,566.50 L 125.50,567.00 L 125.00,567.50 L 124.00,567.50 L 123.50,568.00 L 123.00,568.50 L 122.50,569.00 L 122.00,569.50 L 121.50,570.00 L 121.00,570.50 L 120.00,570.50 L 119.50,571.00 L 119.00,571.50 L 118.50,572.00 L 118.00,572.50 L 117.50,573.00 L 117.00,573.50 L 116.00,573.50 L 115.50,574.00 L 115.00,574.50 L 114.50,575.00 L 114.00,575.50 L 113.50,576.00 L 113.00,576.50 L 112.50,577.00 L 112.00,577.50 L 111.50,578.00 L 111.00,578.50 L 110.50,579.00 L 110.00,579.50 L 109.50,580.00 L 109.00,580.50 L 108.50,581.00 L 108.00,581.50 L 107.50,582.00 L 107.00,582.50 L 106.50,583.00 L 106.00,583.50 L 105.50,584.00 L 105.00,584.50 L 104.50,585.00 L 104.00,585.50 L 103.50,586.00 L 103.00,586.50 L 102.50,587.00 L 102.00,587.50 L 101.50,588.00 L 101.50,589.00 L 101.00,589.50 L 100.50,590.00 L 100.00,590.50 L 99.50,591.00 L 99.00,591.50 L 98.50,592.00 L 98.00,592.50 L 97.50,593.00 L 97.50,594.00 L 97.00,594.50 L 96.50,595.00 L 96.00,595.50 L 95.50,596.00 L 95.00,596.50 L 94.50,597.00 L 94.00,597.50 L 93.50,598.00 L 93.50,599.00 L 93.00,599.50 L 92.50,600.00 L 92.00,600.50 L 91.50,601.00 L 91.50,602.00 L 91.00,602.50 L 90.50,603.00 L 90.00,603.50 L 89.50,604.00 L 89.50,605.00 L 89.00,605.50 L 88.50,606.00 L 88.50,607.00 L 88.00,607.50 L 87.50,608.00 L 87.00,608.50 L 86.50,609.00 L 86.50,610.00 L 86.00,610.50 L 85.50,611.00 L 85.50,612.00 L 85.00,612.50 L 84.50,613.00 L 84.50,614.00 L 84.00,614.50 L 83.50,615.00 L 83.50,616.00 L 83.00,616.50 L 82.50,617.00 L 82.50,618.00 L 82.50,619.00 L 82.00,619.50 L 81.50,620.00 L 81.50,621.00 L 81.00,621.50 L 80.50,622.00 L 80.50,623.00 L 80.50,624.00 L 80.00,624.50 L 79.50,625.00 L 79.50,626.00 L 79.50,627.00 L 79.50,628.00 L 79.00,628.50 L 78.50,629.00 L 78.50,630.00 L 78.50,631.00 L 78.50,632.00 L 78.00,632.50 L 77.50,633.00 L 77.50,634.00 L 77.50,635.00 L 77.50,636.00 L 77.00,636.50 L 76.50,637.00 L 76.50,638.00 L 76.50,639.00 L 76.50,640.00 L 76.50,641.00 L 76.50,642.00 L 76.50,643.00 L 76.00,643.50 L 75.50,644.00 L 75.50,645.00 L 75.50,646.00 L 75.50,647.00 L 75.50,648.00 L 75.50,649.00 L 75.50,650.00 L 75.50,651.00 L 75.50,652.00 L 75.50,653.00 L 75.50,654.00 L 75.50,655.00 L 75.50,656.00 L 75.50,657.00 L 75.50,658.00 L 75.50,659.00 L 75.50,660.00 L 75.50,661.00 L 75.50,662.00 L 75.50,663.00 L 75.50,664.00 L 75.50,665.00 L 75.50,666.00 L 75.50,667.00 L 75.50,668.00 L 76.00,668.50 L 76.50,669.00 L 76.50,670.00 L 76.50,671.00 L 76.50,672.00 L 76.50,673.00 L 76.50,674.00 L 77.00,674.50 L 77.50,675.00 L 77.50,676.00 L 77.50,677.00 L 77.50,678.00 L 78.00,678.50 L 78.50,679.00 L 78.50,680.00 L 78.50,681.00 L 79.00,681.50 L 79.50,682.00 L 79.50,683.00 L 79.50,684.00 L 80.00,684.50 L 80.50,685.00 L 80.50,686.00 L 80.50,687.00 L 81.00,687.50 L 81.50,688.00 L 81.50,689.00 L 82.00,689.50 L 82.50,690.00 L 82.50,691.00 L 82.50,692.00 L 83.00,692.50 L 83.50,693.00 L 83.50,694.00 L 84.00,694.50 L 84.50,695.00 L 85.00,695.50 L 85.50,696.00 L 85.50,697.00 L 86.00,697.50 L 86.50,698.00 L 86.50,699.00 L 87.00,699.50 L 87.50,700.00 L 88.00,700.50 L 88.50,701.00 L 88.50,702.00 L 89.00,702.50 L 89.50,703.00 L 90.00,703.50 L 90.50,704.00 L 90.50,705.00 L 91.00,705.50 L 91.50,706.00 L 92.00,706.50 L 92.50,707.00 L 93.00,707.50 L 93.50,708.00 L 93.50,709.00 L 94.00,709.50 L 94.50,710.00 L 95.00,710.50 L 95.50,711.00 L 96.00,711.50 L 96.50,712.00 L 97.00,712.50 L 97.50,713.00 L 98.00,713.50 L 98.50,714.00 L 99.00,714.50 L 99.50,715.00 L 100.00,715.50 L 100.50,716.00 L 101.00,716.50 L 101.50,717.00 L 102.00,717.50 L 102.50,718.00 L 103.00,718.50 L 103.50,719.00 L 104.00,719.50 L 104.50,720.00 L 105.00,720.50 L 105.50,721.00 L 106.00,721.50 L 106.50,722.00 L 107.00,722.50 L 107.50,723.00 L 108.00,723.50 L 108.50,724.00 L 109.00,724.50 L 109.50,725.00 L 110.00,725.50 L 110.50,726.00 L 111.00,726.50 L 112.00,726.50 L 112.50,727.00 L 113.00,727.50 L 114.00,727.50 L 114.50,728.00 L 115.00,728.50 L 115.50,729.00 L 116.00,729.50 L 117.00,729.50 L 117.50,730.00 L 118.00,730.50 L 118.50,731.00 L 119.00,731.50 L 120.00,731.50 L 120.50,732.00 L 121.00,732.50 L 121.50,733.00 L 122.00,733.50 L 123.00,733.50 L 123.50,734.00 L 124.00,734.50 L 125.00,734.50 L 125.50,735.00 L 126.00,735.50 L 127.00,735.50 L 127.50,736.00 L 128.00,736.50 L 129.00,736.50 L 130.00,736.50 L 130.50,737.00 L 131.00,737.50 L 132.00,737.50 L 133.00,737.50 L 133.50,738.00 L 134.00,738.50 L 135.00,738.50 L 136.00,738.50 L 136.50,739.00 L 137.00,739.50 L 138.00,739.50 L 139.00,739.50 L 139.50,740.00 L 140.00,740.50 L 141.00,740.50 L 142.00,740.50 L 143.00,740.50 L 143.50,741.00 L 144.00,741.50 L 145.00,741.50 L 146.00,741.50 L 147.00,741.50 L 147.50,742.00 L 148.00,742.50 L 149.00,742.50 L 150.00,742.50 L 151.00,742.50 L 152.00,742.50 L 153.00,742.50 L 154.00,742.50 L 155.00,742.50 L 155.50,743.00 L 156.00,743.50 L 157.00,743.50 L 158.00,743.50 L 159.00,743.50 L 160.00,743.50 L 161.00,743.50 L 162.00,743.50 L 163.00,743.50 L 164.00,743.50 L 165.00,743.50 L 166.00,743.50 L 167.00,743.50 L 168.00,743.50 L 169.00,743.50 L 170.00,743.50 L 171.00,743.50 L 172.00,743.50 L 172.50,743.00 Z"/><path d="M 641.50,743.00 L 642.00,742.50 L 643.00,742.50 L 644.00,742.50 L 645.00,742.50 L 646.00,742.50 L 647.00,742.50 L 648.00,742.50 L 648.50,742.00 L 649.00,741.50 L 650.00,741.50 L 651.00,741.50 L 651.50,741.00 L 652.00,740.50 L 653.00,740.50 L 654.00,740.50 L 655.00,740.50 L 655.50,740.00 L 656.00,739.50 L 657.00,739.50 L 658.00,739.50 L 658.50,739.00 L 659.00,738.50 L 660.00,738.50 L 661.00,738.50 L 661.50,738.00 L 662.00,737.50 L 663.00,737.50 L 664.00,737.50 L 664.50,737.00 L 665.00,736.50 L 666.00,736.50 L 666.50,736.00 L 667.00,735.50 L 668.00,735.50 L 668.50,735.00 L 669.00,734.50 L 670.00,734.50 L 670.50,734.00 L 671.00,733.50 L 672.00,733.50 L 672.50,733.00 L 673.00,732.50 L 674.00,732.50 L 674.50,732.00 L 675.00,731.50 L 676.00,731.50 L 676.50,731.00 L 677.00,730.50 L 678.00,730.50 L 678.50,730.00 L 679.00,729.50 L 680.00,729.50 L 680.50,729.00 L 681.00,728.50 L 681.50,728.00 L 682.00,727.50 L 682.50,727.00 L 683.00,726.50 L 684.00,726.50 L 684.50,726.00 L 685.00,725.50 L 685.50,725.00 L 686.00,724.50 L 686.50,724.00 L 687.00,723.50 L 687.50,723.00 L 688.00,722.50 L 688.50,722.00 L 689.00,721.50 L 689.50,721.00 L 690.00,720.50 L 690.50,720.00 L 691.00,719.50 L 691.50,719.00 L 692.00,718.50 L 692.50,718.00 L 693.00,717.50 L 693.50,717.00 L 693.50,716.00 L 694.00,715.50 L 694.50,715.00 L 695.00,714.50 L 695.50,714.00 L 696.00,713.50 L 696.50,713.00 L 697.00,712.50 L 697.50,712.00 L 697.50,711.00 L 698.00,710.50 L 698.50,710.00 L 699.00,709.50 L 699.50,709.00 L 700.00,708.50 L 700.50,708.00 L 700.50,707.00 L 701.00,706.50 L 701.50,706.00 L 702.00,705.50 L 702.50,705.00 L 702.50,704.00 L 703.00,703.50 L 703.50,703.00 L 703.50,702.00 L 704.00,701.50 L 704.50,701.00 L 704.50,700.00 L 705.00,699.50 L 705.50,699.00 L 706.00,698.50 L 706.50,698.00 L 706.50,697.00 L 706.50,696.00 L 707.00,695.50 L 707.50,695.00 L 707.50,694.00 L 708.00,693.50 L 708.50,693.00 L 708.50,692.00 L 708.50,691.00 L 709.00,690.50 L 709.50,690.00 L 709.50,689.00 L 710.00,688.50 L 710.50,688.00 L 710.50,687.00 L 710.50,686.00 L 711.00,685.50 L 711.50,685.00 L 711.50,684.00 L 711.50,683.00 L 711.50,682.00 L 712.00,681.50 L 712.50,681.00 L 712.50,680.00 L 712.50,679.00 L 712.50,678.00 L 713.00,677.50 L 713.50,677.00 L 713.50,676.00 L 713.50,675.00 L 713.50,674.00 L 713.50,673.00 L 714.00,672.50 L 714.50,672.00 L 714.50,671.00 L 714.50,670.00 L 714.50,669.00 L 714.50,668.00 L 714.50,667.00 L 714.50,666.00 L 714.50,665.00 L 714.50,664.00 L 714.50,663.00 L 714.50,662.00 L 714.50,661.00 L 714.50,660.00 L 714.50,659.00 L 714.50,658.00 L 714.50,657.00 L 714.50,656.00 L 714.50,655.00 L 714.50,654.00 L 714.50,653.00 L 714.50,652.00 L 714.50,651.00 L 714.50,650.00 L 714.50,649.00 L 714.50,648.00 L 714.50,647.00 L 714.50,646.00 L 714.50,645.00 L 714.00,644.50 L 713.50,644.00 L 713.50,643.00 L 713.50,642.00 L 713.50,641.00 L 713.50,640.00 L 713.00,639.50 L 712.50,639.00 L 712.50,638.00 L 712.50,637.00 L 712.00,636.50 L 711.50,636.00 L 711.50,635.00 L 711.50,634.00 L 711.50,633.00 L 711.00,632.50 L 710.50,632.00 L 710.50,631.00 L 710.50,630.00 L 710.00,629.50 L 709.50,629.00 L 709.50,628.00 L 709.50,627.00 L 709.50,626.00 L 709.00,625.50 L 708.50,625.00 L 708.50,624.00 L 708.00,623.50 L 707.50,623.00 L 707.50,622.00 L 707.50,621.00 L 707.00,620.50 L 706.50,620.00 L 706.50,619.00 L 706.00,618.50 L 705.50,618.00 L 705.00,617.50 L 704.50,617.00 L 704.50,616.00 L 704.00,615.50 L 703.50,615.00 L 703.50,614.00 L 703.00,613.50 L 702.50,613.00 L 702.50,612.00 L 702.00,611.50 L 701.50,611.00 L 701.00,610.50 L 700.50,610.00 L 700.50,609.00 L 700.00,608.50 L 699.50,608.00 L 699.00,607.50 L 698.50,607.00 L 698.50,606.00 L 698.00,605.50 L 697.50,605.00 L 697.00,604.50 L 696.50,604.00 L 696.50,603.00 L 696.00,602.50 L 695.50,602.00 L 695.50,601.00 L 695.00,600.50 L 694.50,600.00 L 694.00,599.50 L 693.50,599.00 L 693.00,598.50 L 692.50,598.00 L 692.50,597.00 L 692.00,596.50 L 691.50,596.00 L 691.00,595.50 L 690.50,595.00 L 690.00,594.50 L 689.50,594.00 L 689.00,593.50 L 688.50,593.00 L 688.50,592.00 L 688.00,591.50 L 687.50,591.00 L 687.00,590.50 L 686.50,590.00 L 686.00,589.50 L 685.50,589.00 L 685.00,588.50 L 684.50,588.00 L 684.00,587.50 L 683.50,587.00 L 683.00,586.50 L 682.50,586.00 L 682.00,585.50 L 681.50,585.00 L 681.00,584.50 L 680.50,584.00 L 680.00,583.50 L 679.50,583.00 L 679.00,582.50 L 678.50,582.00 L 678.00,581.50 L 677.50,581.00 L 677.00,580.50 L 676.50,580.00 L 676.00,579.50 L 675.50,579.00 L 675.00,578.50 L 674.50,578.00 L 674.00,577.50 L 673.50,577.00 L 673.00,576.50 L 672.50,576.00 L 672.00,575.50 L 671.50,575.00 L 671.00,574.50 L 670.50,574.00 L 670.00,573.50 L 669.50,573.00 L 669.00,572.50 L 668.00,572.50 L 667.50,572.00 L 667.00,571.50 L 666.50,571.00 L 666.00,570.50 L 665.50,570.00 L 665.00,569.50 L 664.50,569.00 L 664.00,568.50 L 663.00,568.50 L 662.50,568.00 L 662.00,567.50 L 661.50,567.00 L 661.00,566.50 L 660.50,566.00 L 660.00,565.50 L 659.50,565.00 L 659.00,564.50 L 658.00,564.50 L 657.50,564.00 L 657.00,563.50 L 656.50,563.00 L 656.00,562.50 L 655.50,562.00 L 655.00,561.50 L 654.00,561.50 L 653.50,561.00 L 653.00,560.50 L 652.50,560.00 L 652.00,559.50 L 651.50,559.00 L 651.00,558.50 L 650.00,558.50 L 649.50,558.00 L 649.00,557.50 L 648.50,557.00 L 648.00,556.50 L 647.00,556.50 L 646.50,556.00 L 646.00,555.50 L 645.50,555.00 L 645.00,554.50 L 644.50,554.00 L 644.00,553.50 L 643.00,553.50 L 642.50,553.00 L 642.00,552.50 L 641.50,552.00 L 641.00,551.50 L 640.50,551.00 L 640.00,550.50 L 639.00,550.50 L 638.50,550.00 L 638.00,549.50 L 637.50,549.00 L 637.00,548.50 L 636.50,548.00 L 636.00,547.50 L 635.00,547.50 L 634.50,547.00 L 634.00,546.50 L 633.50,546.00 L 633.00,545.50 L 632.50,545.00 L 632.00,544.50 L 631.00,544.50 L 630.50,544.00 L 630.00,543.50 L 629.50,543.00 L 629.00,542.50 L 628.50,542.00 L 628.00,541.50 L 627.00,541.50 L 626.50,541.00 L 626.00,540.50 L 625.50,540.00 L 625.00,539.50 L 624.50,539.00 L 624.00,538.50 L 623.00,538.50 L 622.50,538.00 L 622.00,537.50 L 621.50,537.00 L 621.00,536.50 L 620.50,536.00 L 620.00,535.50 L 619.00,535.50 L 618.50,535.00 L 618.00,534.50 L 617.50,534.00 L 617.00,533.50 L 616.00,533.50 L 615.50,533.00 L 615.00,532.50 L 614.50,532.00 L 614.00,531.50 L 613.50,531.00 L 613.00,530.50 L 612.50,530.00 L 612.00,529.50 L 611.00,529.50 L 610.50,529.00 L 610.00,528.50 L 609.50,528.00 L 609.00,527.50 L 608.50,527.00 L 608.00,526.50 L 607.50,526.00 L 607.00,525.50 L 606.50,525.00 L 606.00,524.50 L 605.50,524.00 L 605.00,523.50 L 604.00,523.50 L 603.50,523.00 L 603.00,522.50 L 602.50,522.00 L 602.00,521.50 L 601.00,521.50 L 600.50,521.00 L 600.00,520.50 L 599.50,520.00 L 599.00,519.50 L 598.00,519.50 L 597.50,519.00 L 597.00,518.50 L 596.50,518.00 L 596.00,517.50 L 595.50,517.00 L 595.00,516.50 L 594.00,516.50 L 593.50,516.00 L 593.00,515.50 L 592.50,515.00 L 592.00,514.50 L 591.50,514.00 L 591.00,513.50 L 590.00,513.50 L 589.50,513.00 L 589.00,512.50 L 588.50,512.00 L 588.00,511.50 L 587.00,511.50 L 586.50,511.00 L 586.00,510.50 L 585.50,510.00 L 585.00,509.50 L 584.00,509.50 L 583.50,509.00 L 583.00,508.50 L 582.00,508.50 L 581.50,508.00 L 581.00,507.50 L 580.50,507.00 L 580.00,506.50 L 579.00,506.50 L 578.00,506.50 L 577.50,506.00 L 577.00,505.50 L 576.00,505.50 L 575.00,505.50 L 574.50,505.00 L 574.00,504.50 L 573.00,504.50 L 572.00,504.50 L 571.50,504.00 L 571.00,503.50 L 570.00,503.50 L 569.00,503.50 L 568.00,503.50 L 567.50,503.00 L 567.00,502.50 L 566.00,502.50 L 565.00,502.50 L 564.00,502.50 L 563.00,502.50 L 562.00,502.50 L 561.00,502.50 L 560.00,502.50 L 559.00,502.50 L 558.00,502.50 L 557.00,502.50 L 556.00,502.50 L 555.50,503.00 L 555.00,503.50 L 554.00,503.50 L 553.00,503.50 L 552.00,503.50 L 551.50,504.00 L 551.00,504.50 L 550.00,504.50 L 549.00,504.50 L 548.00,504.50 L 547.50,505.00 L 547.00,505.50 L 546.00,505.50 L 545.00,505.50 L 544.50,506.00 L 544.00,506.50 L 543.00,506.50 L 542.50,507.00 L 542.00,507.50 L 541.00,507.50 L 540.50,508.00 L 540.00,508.50 L 539.00,508.50 L 538.50,509.00 L 538.00,509.50 L 537.50,510.00 L 537.00,510.50 L 536.00,510.50 L 535.50,511.00 L 535.00,511.50 L 534.50,512.00 L 534.00,512.50 L 533.00,512.50 L 532.50,513.00 L 532.00,513.50 L 531.50,514.00 L 531.00,514.50 L 530.50,515.00 L 530.00,515.50 L 529.50,516.00 L 529.00,516.50 L 528.50,517.00 L 528.00,517.50 L 527.50,518.00 L 527.00,518.50 L 526.50,519.00 L 526.00,519.50 L 525.50,520.00 L 525.50,521.00 L 525.00,521.50 L 524.50,522.00 L 524.00,522.50 L 523.50,523.00 L 523.00,523.50 L 522.50,524.00 L 522.50,525.00 L 522.00,525.50 L 521.50,526.00 L 521.50,527.00 L 521.00,527.50 L 520.50,528.00 L 520.50,529.00 L 520.00,529.50 L 519.50,530.00 L 519.00,530.50 L 518.50,531.00 L 518.50,532.00 L 518.50,533.00 L 518.00,533.50 L 517.50,534.00 L 517.50,535.00 L 517.00,535.50 L 516.50,536.00 L 516.50,537.00 L 516.00,537.50 L 515.50,538.00 L 515.50,539.00 L 515.50,540.00 L 515.00,540.50 L 514.50,541.00 L 514.50,542.00 L 514.50,543.00 L 514.00,543.50 L 513.50,544.00 L 513.50,545.00 L 513.50,546.00 L 513.50,547.00 L 513.00,547.50 L 512.50,548.00 L 512.50,549.00 L 512.50,550.00 L 512.50,551.00 L 512.50,552.00 L 512.50,553.00 L 512.00,553.50 L 511.50,554.00 L 511.50,555.00 L 511.50,556.00 L 511.50,557.00 L 511.50,558.00 L 511.50,559.00 L 511.50,560.00 L 511.50,561.00 L 511.50,562.00 L 511.50,563.00 L 511.50,564.00 L 511.50,565.00 L 511.50,566.00 L 511.50,567.00 L 512.00,567.50 L 512.50,568.00 L 512.50,569.00 L 512.50,570.00 L 512.50,571.00 L 512.50,572.00 L 512.50,573.00 L 513.00,573.50 L 513.50,574.00 L 513.50,575.00 L 513.50,576.00 L 513.50,577.00 L 514.00,577.50 L 514.50,578.00 L 514.50,579.00 L 514.50,580.00 L 515.00,580.50 L 515.50,581.00 L 515.50,582.00 L 515.50,583.00 L 516.00,583.50 L 516.50,584.00 L 516.50,585.00 L 516.50,586.00 L 517.00,586.50 L 517.50,587.00 L 517.50,588.00 L 518.00,588.50 L 518.50,589.00 L 518.50,590.00 L 518.50,591.00 L 519.00,591.50 L 519.50,592.00 L 519.50,593.00 L 519.50,594.00 L 520.00,594.50 L 520.50,595.00 L 520.50,596.00 L 521.00,596.50 L 521.50,597.00 L 521.50,598.00 L 521.50,599.00 L 522.00,599.50 L 522.50,600.00 L 522.50,601.00 L 522.50,602.00 L 523.00,602.50 L 523.50,603.00 L 523.50,604.00 L 524.00,604.50 L 524.50,605.00 L 524.50,606.00 L 524.50,607.00 L 525.00,607.50 L 525.50,608.00 L 525.50,609.00 L 526.00,609.50 L 526.50,610.00 L 526.50,611.00 L 527.00,611.50 L 527.50,612.00 L 527.50,613.00 L 527.50,614.00 L 528.00,614.50 L 528.50,615.00 L 528.50,616.00 L 528.50,617.00 L 529.00,617.50 L 529.50,618.00 L 529.50,619.00 L 529.50,620.00 L 530.00,620.50 L 530.50,621.00 L 530.50,622.00 L 530.50,623.00 L 531.00,623.50 L 531.50,624.00 L 531.50,625.00 L 532.00,625.50 L 532.50,626.00 L 532.50,627.00 L 532.50,628.00 L 533.00,628.50 L 533.50,629.00 L 533.50,630.00 L 533.50,631.00 L 534.00,631.50 L 534.50,632.00 L 534.50,633.00 L 535.00,633.50 L 535.50,634.00 L 535.50,635.00 L 535.50,636.00 L 536.00,636.50 L 536.50,637.00 L 536.50,638.00 L 536.50,639.00 L 537.00,639.50 L 537.50,640.00 L 537.50,641.00 L 537.50,642.00 L 538.00,642.50 L 538.50,643.00 L 538.50,644.00 L 539.00,644.50 L 539.50,645.00 L 539.50,646.00 L 539.50,647.00 L 540.00,647.50 L 540.50,648.00 L 540.50,649.00 L 540.50,650.00 L 541.00,650.50 L 541.50,651.00 L 541.50,652.00 L 542.00,652.50 L 542.50,653.00 L 542.50,654.00 L 542.50,655.00 L 543.00,655.50 L 543.50,656.00 L 543.50,657.00 L 543.50,658.00 L 543.50,659.00 L 544.00,659.50 L 544.50,660.00 L 544.50,661.00 L 544.50,662.00 L 545.00,662.50 L 545.50,663.00 L 545.50,664.00 L 546.00,664.50 L 546.50,665.00 L 546.50,666.00 L 546.50,667.00 L 547.00,667.50 L 547.50,668.00 L 547.50,669.00 L 547.50,670.00 L 548.00,670.50 L 548.50,671.00 L 548.50,672.00 L 548.50,673.00 L 549.00,673.50 L 549.50,674.00 L 549.50,675.00 L 550.00,675.50 L 550.50,676.00 L 550.50,677.00 L 550.50,678.00 L 551.00,678.50 L 551.50,679.00 L 551.50,680.00 L 551.50,681.00 L 552.00,681.50 L 552.50,682.00 L 552.50,683.00 L 553.00,683.50 L 553.50,684.00 L 553.50,685.00 L 554.00,685.50 L 554.50,686.00 L 554.50,687.00 L 554.50,688.00 L 555.00,688.50 L 555.50,689.00 L 555.50,690.00 L 556.00,690.50 L 556.50,691.00 L 556.50,692.00 L 557.00,692.50 L 557.50,693.00 L 557.50,694.00 L 558.00,694.50 L 558.50,695.00 L 558.50,696.00 L 559.00,696.50 L 559.50,697.00 L 559.50,698.00 L 560.00,698.50 L 560.50,699.00 L 560.50,700.00 L 561.00,700.50 L 561.50,701.00 L 562.00,701.50 L 562.50,702.00 L 562.50,703.00 L 563.00,703.50 L 563.50,704.00 L 564.00,704.50 L 564.50,705.00 L 564.50,706.00 L 565.00,706.50 L 565.50,707.00 L 566.00,707.50 L 566.50,708.00 L 567.00,708.50 L 567.50,709.00 L 568.00,709.50 L 568.50,710.00 L 568.50,711.00 L 569.00,711.50 L 569.50,712.00 L 570.00,712.50 L 570.50,713.00 L 570.50,714.00 L 571.00,714.50 L 571.50,715.00 L 572.00,715.50 L 572.50,716.00 L 573.00,716.50 L 573.50,717.00 L 573.50,718.00 L 574.00,718.50 L 574.50,719.00 L 575.00,719.50 L 575.50,720.00 L 576.00,720.50 L 577.00,720.50 L 577.50,721.00 L 578.00,721.50 L 578.50,722.00 L 579.00,722.50 L 579.50,723.00 L 580.00,723.50 L 580.50,724.00 L 581.00,724.50 L 581.50,725.00 L 582.00,725.50 L 582.50,726.00 L 583.00,726.50 L 584.00,726.50 L 584.50,727.00 L 585.00,727.50 L 585.50,728.00 L 586.00,728.50 L 587.00,728.50 L 587.50,729.00 L 588.00,729.50 L 588.50,730.00 L 589.00,730.50 L 590.00,730.50 L 590.50,731.00 L 591.00,731.50 L 591.50,732.00 L 592.00,732.50 L 593.00,732.50 L 593.50,733.00 L 594.00,733.50 L 595.00,733.50 L 595.50,734.00 L 596.00,734.50 L 597.00,734.50 L 597.50,735.00 L 598.00,735.50 L 599.00,735.50 L 599.50,736.00 L 600.00,736.50 L 601.00,736.50 L 601.50,737.00 L 602.00,737.50 L 603.00,737.50 L 604.00,737.50 L 604.50,738.00 L 605.00,738.50 L 606.00,738.50 L 607.00,738.50 L 607.50,739.00 L 608.00,739.50 L 609.00,739.50 L 610.00,739.50 L 610.50,740.00 L 611.00,740.50 L 612.00,740.50 L 613.00,740.50 L 613.50,741.00 L 614.00,741.50 L 615.00,741.50 L 616.00,741.50 L 617.00,741.50 L 618.00,741.50 L 618.50,742.00 L 619.00,742.50 L 620.00,742.50 L 621.00,742.50 L 622.00,742.50 L 623.00,742.50 L 624.00,742.50 L 625.00,742.50 L 625.50,743.00 L 626.00,743.50 L 627.00,743.50 L 628.00,743.50 L 629.00,743.50 L 630.00,743.50 L 631.00,743.50 L 632.00,743.50 L 633.00,743.50 L 634.00,743.50 L 635.00,743.50 L 636.00,743.50 L 637.00,743.50 L 638.00,743.50 L 639.00,743.50 L 640.00,743.50 L 641.00,743.50 L 641.50,743.00 Z"/><path d="M 405.00,556.50 L 404.50,556.00 L 404.00,555.50 L 403.00,555.50 L 402.00,555.50 L 401.00,555.50 L 400.00,555.50 L 399.50,556.00 L 399.00,556.50 L 398.00,556.50 L 397.50,556.00 L 397.00,555.50 L 396.50,556.00 L 396.00,556.50 L 395.00,556.50 L 394.50,556.00 L 394.00,555.50 L 393.00,555.50 L 392.00,555.50 L 391.00,555.50 L 390.50,556.00 L 390.00,556.50 L 389.00,556.50 L 388.50,556.00 L 388.00,555.50 L 387.00,555.50 L 386.50,556.00 L 386.00,556.50 L 385.00,556.50 L 384.50,556.00 L 384.00,555.50 L 383.50,556.00 L 383.00,556.50 L 382.00,556.50 L 381.00,556.50 L 380.00,556.50 L 379.00,556.50 L 378.00,556.50 L 377.50,556.00 L 377.00,555.50 L 376.00,555.50 L 375.00,555.50 L 374.50,556.00 L 374.00,556.50 L 373.00,556.50 L 372.50,556.00 L 372.00,555.50 L 371.00,555.50 L 370.00,555.50 L 369.00,555.50 L 368.00,555.50 L 367.50,556.00 L 367.00,556.50 L 366.00,556.50 L 365.00,556.50 L 364.00,556.50 L 363.00,556.50 L 362.00,556.50 L 361.50,556.00 L 361.50,555.00 L 362.00,554.50 L 363.00,554.50 L 364.00,554.50 L 365.00,554.50 L 366.00,554.50 L 367.00,554.50 L 368.00,554.50 L 369.00,554.50 L 370.00,554.50 L 371.00,554.50 L 372.00,554.50 L 373.00,554.50 L 373.50,554.00 L 374.00,553.50 L 374.50,554.00 L 375.00,554.50 L 376.00,554.50 L 376.50,554.00 L 377.00,553.50 L 378.00,553.50 L 378.50,554.00 L 379.00,554.50 L 380.00,554.50 L 381.00,554.50 L 382.00,554.50 L 382.50,554.00 L 383.00,553.50 L 384.00,553.50 L 384.50,554.00 L 385.00,554.50 L 385.50,554.00 L 386.00,553.50 L 386.50,554.00 L 387.00,554.50 L 388.00,554.50 L 389.00,554.50 L 389.50,554.00 L 390.00,553.50 L 391.00,553.50 L 391.50,554.00 L 392.00,554.50 L 393.00,554.50 L 393.50,554.00 L 394.00,553.50 L 394.50,554.00 L 395.00,554.50 L 396.00,554.50 L 397.00,554.50 L 398.00,554.50 L 399.00,554.50 L 399.50,554.00 L 400.00,553.50 L 400.50,554.00 L 401.00,554.50 L 402.00,554.50 L 403.00,554.50 L 404.00,554.50 L 405.00,554.50 L 406.00,554.50 L 407.00,554.50 L 408.00,554.50 L 409.00,554.50 L 410.00,554.50 L 411.00,554.50 L 412.00,554.50 L 413.00,554.50 L 414.00,554.50 L 415.00,554.50 L 416.00,554.50 L 417.00,554.50 L 418.00,554.50 L 419.00,554.50 L 420.00,554.50 L 421.00,554.50 L 422.00,554.50 L 423.00,554.50 L 424.00,554.50 L 424.50,555.00 L 424.00,555.50 L 423.00,555.50 L 422.00,555.50 L 421.00,555.50 L 420.00,555.50 L 419.00,555.50 L 418.00,555.50 L 417.00,555.50 L 416.00,555.50 L 415.00,555.50 L 414.00,555.50 L 413.00,555.50 L 412.00,555.50 L 411.00,555.50 L 410.00,555.50 L 409.00,555.50 L 408.00,555.50 L 407.00,555.50 L 406.00,555.50 L 405.50,556.00 L 405.00,556.50 Z"/><path d="M 292.00,584.50 L 291.50,584.00 L 291.00,583.50 L 290.50,583.00 L 291.00,582.50 L 292.00,582.50 L 292.50,582.00 L 293.00,581.50 L 293.50,581.00 L 293.50,580.00 L 294.00,579.50 L 295.00,579.50 L 295.50,579.00 L 296.00,578.50 L 296.50,578.00 L 297.00,577.50 L 297.50,577.00 L 298.00,576.50 L 298.50,576.00 L 299.00,575.50 L 300.00,575.50 L 300.50,575.00 L 301.00,574.50 L 301.50,574.00 L 302.00,573.50 L 303.00,573.50 L 303.50,573.00 L 304.00,572.50 L 304.50,572.00 L 305.00,571.50 L 305.50,571.00 L 306.00,570.50 L 307.00,570.50 L 308.00,570.50 L 308.50,570.00 L 309.00,569.50 L 310.00,569.50 L 311.00,569.50 L 311.50,569.00 L 312.00,568.50 L 312.50,569.00 L 312.50,570.00 L 312.00,570.50 L 311.50,571.00 L 311.00,571.50 L 310.00,571.50 L 309.50,572.00 L 309.00,572.50 L 308.00,572.50 L 307.50,573.00 L 307.00,573.50 L 306.50,574.00 L 306.00,574.50 L 305.00,574.50 L 304.00,574.50 L 303.50,575.00 L 303.00,575.50 L 302.50,576.00 L 302.00,576.50 L 301.00,576.50 L 300.50,577.00 L 300.50,578.00 L 300.00,578.50 L 299.00,578.50 L 298.50,579.00 L 298.00,579.50 L 297.50,580.00 L 297.00,580.50 L 296.00,580.50 L 295.50,581.00 L 295.00,581.50 L 294.50,582.00 L 294.00,582.50 L 293.50,583.00 L 293.00,583.50 L 292.50,584.00 L 292.00,584.50 Z"/>
</g>
</svg>
