<svg xmlns="http://www.w3.org/2000/svg" width="1200" height="630" viewBox="0 0 1200 630" fill="none">
  <defs>
    <linearGradient id="bg" x1="0" y1="0" x2="1200" y2="630" gradientUnits="userSpaceOnUse">
      <stop stop-color="#08070b"/>
      <stop offset="1" stop-color="#050409"/>
    </linearGradient>
    <radialGradient id="glow" cx="0" cy="0" r="1" gradientUnits="userSpaceOnUse" gradientTransform="translate(600 148) rotate(90) scale(240 480)">
      <stop stop-color="#c8a455" stop-opacity="0.16"/>
      <stop offset="1" stop-color="#c8a455" stop-opacity="0"/>
    </radialGradient>
    <linearGradient id="panel" x1="0" y1="0" x2="0" y2="1">
      <stop stop-color="#16131b" stop-opacity="0.96"/>
      <stop offset="1" stop-color="#100e15" stop-opacity="0.98"/>
    </linearGradient>
  </defs>

  <rect width="1200" height="630" fill="url(#bg)"/>
  <rect width="1200" height="630" fill="url(#glow)"/>
  <rect x="60" y="44" width="1080" height="74" rx="22" fill="url(#panel)" stroke="#27212d"/>

  <g transform="translate(88 66)">
    <rect x="0" y="0" width="28" height="28" rx="9" fill="#131019" stroke="#4c3d1c"/>
    <circle cx="14" cy="14" r="7.2" stroke="#c8a455" stroke-width="1.1"/>
    <path d="M14 3.8L16 11.1L14 13.3L12 11.1L14 3.8Z" fill="#d8b66a"/>
    <path d="M14 24.2L16 16.9L14 14.7L12 16.9L14 24.2Z" fill="#a77d33" opacity=".55"/>
    <path d="M3.8 14L11.1 12L13.3 14L11.1 16L3.8 14Z" fill="#a77d33" opacity=".55"/>
    <path d="M24.2 14L16.9 12L14.7 14L16.9 16L24.2 14Z" fill="#a77d33" opacity=".55"/>
    <circle cx="14" cy="14" r="2.1" fill="#d8b66a"/>
  </g>

  <text x="130" y="86" fill="#f0ece4" font-family="-apple-system,BlinkMacSystemFont,'Segoe UI',sans-serif" font-size="28" font-weight="600">
    AuraEstate
  </text>

  <g transform="translate(520 138)">
    <circle cx="80" cy="80" r="72" stroke="#5b4520" stroke-width="1.4"/>
    <circle cx="80" cy="80" r="54" stroke="#4d3918" stroke-width="1.1"/>
    <circle cx="80" cy="80" r="30" stroke="#3c2e14" stroke-width="1"/>
    <path d="M80 9L86 63L80 77L74 63L80 9Z" fill="#d8b66a"/>
    <path d="M80 151L86 97L80 83L74 97L80 151Z" fill="#a77d33" opacity=".4"/>
    <path d="M151 80L97 74L83 80L97 86L151 80Z" fill="#a77d33" opacity=".4"/>
    <path d="M9 80L63 74L77 80L63 86L9 80Z" fill="#a77d33" opacity=".4"/>
    <circle cx="80" cy="80" r="6" fill="#d8b66a"/>
    <text x="80" y="28" text-anchor="middle" fill="#b58a3b" font-family="-apple-system,BlinkMacSystemFont,'Segoe UI',sans-serif" font-size="12" font-weight="700" letter-spacing="2">N</text>
    <text x="80" y="136" text-anchor="middle" fill="#7f6440" font-family="-apple-system,BlinkMacSystemFont,'Segoe UI',sans-serif" font-size="12" font-weight="700" letter-spacing="2">S</text>
    <text x="132" y="84" text-anchor="middle" fill="#7f6440" font-family="-apple-system,BlinkMacSystemFont,'Segoe UI',sans-serif" font-size="12" font-weight="700" letter-spacing="2">E</text>
    <text x="28" y="84" text-anchor="middle" fill="#7f6440" font-family="-apple-system,BlinkMacSystemFont,'Segoe UI',sans-serif" font-size="12" font-weight="700" letter-spacing="2">W</text>
  </g>

  <g transform="translate(405 252)">
    <rect x="0" y="0" width="390" height="34" rx="17" fill="#1a151d" stroke="#59431f"/>
    <text x="195" y="22" text-anchor="middle" fill="#b58a3b" font-family="-apple-system,BlinkMacSystemFont,'Segoe UI',sans-serif" font-size="12" font-weight="700" letter-spacing="2.4">
      BROWSER EXTENSION · CHROME, FIREFOX, AND EDGE
    </text>
  </g>

  <text x="600" y="392" text-anchor="middle" fill="#f0ece4" font-family="'Iowan Old Style',Baskerville,'Palatino Linotype',Georgia,serif" font-size="84" font-weight="400" letter-spacing="-2">
    Aura<tspan fill="#d8b66a" font-style="italic">Estate</tspan>
  </text>

  <text x="600" y="452" text-anchor="middle" fill="#a59a8d" font-family="-apple-system,BlinkMacSystemFont,'Segoe UI',sans-serif" font-size="26">
    Chaldean numerology and entrance-direction insight, overlaid directly on supported listings.
  </text>
  <text x="600" y="490" text-anchor="middle" fill="#a59a8d" font-family="-apple-system,BlinkMacSystemFont,'Segoe UI',sans-serif" font-size="26">
    Works on Zillow, Redfin, Trulia, Homes.com, Movoto, and Apartments.com.
  </text>

  <g transform="translate(312 534)">
    <rect x="0" y="0" width="156" height="40" rx="20" fill="#17131b" stroke="#2c2431"/>
    <text x="78" y="25" text-anchor="middle" fill="#f0ece4" font-family="-apple-system,BlinkMacSystemFont,'Segoe UI',sans-serif" font-size="18" font-weight="500">
      Local-first
    </text>
  </g>
  <g transform="translate(484 534)">
    <rect x="0" y="0" width="156" height="40" rx="20" fill="#17131b" stroke="#2c2431"/>
    <text x="78" y="25" text-anchor="middle" fill="#f0ece4" font-family="-apple-system,BlinkMacSystemFont,'Segoe UI',sans-serif" font-size="18" font-weight="500">
      No accounts
    </text>
  </g>
  <g transform="translate(656 534)">
    <rect x="0" y="0" width="232" height="40" rx="20" fill="#17131b" stroke="#2c2431"/>
    <text x="116" y="25" text-anchor="middle" fill="#f0ece4" font-family="-apple-system,BlinkMacSystemFont,'Segoe UI',sans-serif" font-size="18" font-weight="500">
      Map lookups only when needed
    </text>
  </g>
</svg>
